<?xml version="1.0" standalone="no"?>
<!DOCTYPE svg PUBLIC "-//W3C//DTD SVG 1.1//EN" "http://www.w3.org/Graphics/SVG/1.1/DTD/svg11.dtd" >
<svg>
<metadata>
Created by FontForge 20090914 at Fri Feb 24 08:12:50 2012
 By root
Generated by Fontographer 4.0.3
</metadata>
<defs>
<font id="HIKakuhihewaBold" horiz-adv-x="1229" >
  <font-face 
    font-family="HI Kakuhihewa"
    font-weight="400"
    font-stretch="normal"
    units-per-em="2048"
    panose-1="0 0 4 0 0 0 0 0 0 0"
    ascent="1638"
    descent="-410"
    x-height="924"
    cap-height="1184"
    bbox="-360 -504 1505 1792"
    underline-thickness="188"
    underline-position="-201"
    unicode-range="U+0020-U+F002"
  />
<missing-glyph horiz-adv-x="1024" 
d="M128 0v1792h768v-1792h-768zM256 128h512v1536h-512v-1536z" />
    <glyph glyph-name=".notdef" horiz-adv-x="1024" 
d="M128 0v1792h768v-1792h-768zM256 128h512v1536h-512v-1536z" />
    <glyph glyph-name=".null" horiz-adv-x="0" 
 />
    <glyph glyph-name="nonmarkingreturn" 
 />
    <glyph glyph-name="space" unicode=" " 
 />
    <glyph glyph-name="exclam" unicode="!" 
d="M614 313q92 0 144.5 -45t52.5 -121t-55 -123t-142 -47q-84 0 -140 48t-56 122t55 120t141 46zM745 1128v-10l-38 -649q-4 -76 -93 -76q-87 0 -92 76l-39 657q-8 127 131 127q131 0 131 -125z" />
    <glyph glyph-name="quotedbl" unicode="&#x22;" 
d="M459 915h-62q-46 0 -51 62l-31 381q-4 49 45 49h134q47 0 47 -49v-12l-31 -369q-5 -62 -51 -62zM831 915h-61q-46 0 -51 62l-31 381q-4 49 47 49h133q45 0 45 -49v-12l-30 -369q-5 -62 -52 -62z" />
    <glyph glyph-name="numbersign" unicode="#" 
d="M266 895h133l23 418q5 86 90 86q80 0 80 -86v-8l-23 -410h123l23 418q5 86 90 86q80 0 80 -86v-8l-23 -410h99q65 0 65 -76t-65 -76h-107l-14 -229h121q65 0 65 -76t-65 -76h-130l-20 -395q-4 -86 -88 -86q-82 0 -82 88v8l23 385h-125l-21 -395q-5 -86 -88 -86
q-34 0 -57 26t-23 66v4l19 385h-103q-65 0 -65 78q0 74 65 74h111l14 229h-125q-65 0 -65 76t65 76zM684 743h-125l-10 -229h123z" />
    <glyph glyph-name="dollar" unicode="$" 
d="M735 1305v-13l-8 -88q43 -8 50 -11q43 -12 54 -17q20 45 76 45q50 0 69.5 -24t20.5 -89l2 -129q2 -102 -108 -102q-57 0 -92 69q-52 105 -174 105q-174 0 -174 -129q0 -50 32 -79.5t119 -62.5l186 -71q136 -52 194 -124t58 -190q0 -340 -368 -340h-6l-13 -219
q-5 -86 -98 -86q-78 0 -78 82v16l15 232q-72 13 -138 47q-28 -37 -88 -37q-54 0 -74 26t-20 97v121q0 123 100 123q79 0 109 -84q2 -6 12 -31q48 -104 230 -104q157 0 157 127q0 89 -174 147l-6 2l-184 72q-217 85 -217 305q0 301 348 323l8 80q8 82 92 82q88 0 88 -71z" />
    <glyph glyph-name="percent" unicode="%" 
d="M729 360q-59 0 -97 -33t-38 -87q0 -55 37.5 -88t97.5 -33q59 0 96 33t37 88q0 53 -37 86.5t-96 33.5zM729 512q126 0 209.5 -78t83.5 -194q0 -120 -82.5 -196.5t-210.5 -76.5t-211.5 77.5t-83.5 195.5q0 116 84 194t211 78zM971 707l-672 -269q-15 -6 -29 -6
q-59 0 -59 72q0 37 41 53l670 266q15 6 30 6q60 0 60 -67q0 -39 -41 -55zM500 1145q-61 0 -98 -34t-37 -89q0 -54 37 -87.5t98 -33.5q59 0 96 33t37 88t-37 89t-96 34zM500 1294q126 0 209.5 -78t83.5 -194q0 -117 -83.5 -194.5t-209.5 -77.5q-128 0 -211.5 77t-83.5 195
q0 117 83.5 194.5t211.5 77.5z" />
    <glyph glyph-name="ampersand" unicode="&#x26;" 
d="M647 233l-188 250q-99 -64 -99 -153q0 -62 44 -106t108 -44q59 0 135 53zM750 1087q20 7 41 7q75 0 75 -90q0 -51 -33.5 -90.5t-74.5 -39.5q-11 0 -91 37t-100 37q-80 0 -80 -74q0 -45 43 -102q8 -11 13 -16l239 -336q13 39 27 92q33 125 111 125h77q31 0 52.5 -28
t21.5 -70q0 -89 -92 -103q-23 -118 -74 -192l51 -62h17q86 0 86 -88q0 -94 -103 -94h-79q-56 0 -78 29l-31 41q-136 -103 -313 -103q-151 0 -245.5 87.5t-94.5 224.5q0 211 223 362l-55 88q-47 75 -47 164q0 122 81.5 189t227.5 67q110 0 205 -62z" />
    <glyph glyph-name="quotesingle" unicode="'" 
d="M645 915h-61q-47 0 -52 62l-30 381q-4 49 47 49h131q47 0 47 -49v-12l-31 -369q-5 -62 -51 -62z" />
    <glyph glyph-name="parenleft" unicode="(" 
d="M874 1223q48 0 48 -49q0 -20 -48 -103l-55 -96q-153 -284 -153 -565q0 -264 118 -498q22 -43 85 -153q53 -92 53 -113q0 -47 -45 -47q-81 0 -201 133q-275 305 -275 678q0 340 228 622q155 191 245 191z" />
    <glyph glyph-name="parenright" unicode=")" 
d="M309 1174q0 49 47 49q95 0 248 -191q227 -284 227 -622q0 -374 -274 -678q-120 -133 -203 -133q-45 0 -45 47q0 14 30 66q66 115 75 132q153 283 153 566q0 266 -118 499q-12 23 -86 154q-54 95 -54 111z" />
    <glyph glyph-name="asterisk" unicode="*" 
d="M707 1155v-10l-27 -275l254 111q8 6 22 6q18 0 31 -41l27 -84q8 -24 8 -35q1 -17 -31 -24l-270 -58l184 -208q15 -13 15 -29q0 -9 -33 -33l-70 -51q-19 -18 -37 -18q-13 0 -26 22l-140 238l-139 -238q-13 -22 -26 -22q-12 0 -39 20l-70 51q-31 23 -31 33q0 13 15 29
l186 204l-270 60q-33 7 -33 24q0 15 8 37l29 84q13 39 28 39q12 0 25 -6l250 -115l-29 289q0 31 51 31h88q50 0 50 -31z" />
    <glyph glyph-name="plus" unicode="+" 
d="M719 1079v-346h332q47 0 77.5 -28t30.5 -74t-31.5 -74.5t-76.5 -28.5h-332v-346q0 -47 -29.5 -77.5t-75.5 -30.5q-43 0 -73.5 31.5t-30.5 76.5v346h-332q-45 0 -76.5 28.5t-31.5 74.5q0 42 32 72t76 30h332v346q0 46 28.5 77.5t75.5 31.5q46 0 75.5 -31.5t29.5 -77.5z
" />
    <glyph glyph-name="comma" unicode="," 
d="M563 346h238q35 0 35 -22l-2 -10q-2 -9 -7 -19l-299 -586q-18 -35 -49 -35q-9 0 -20 4l-76 27q-35 12 -35 39q0 14 0.5 18.5t1.5 8.5l142 520q9 34 22 44.5t49 10.5z" />
    <glyph glyph-name="hyphen" unicode="-" 
d="M197 575h829q49 0 49 -47v-125q0 -22 -16 -38.5t-33 -16.5h-829q-43 0 -43 55v125q0 47 43 47z" />
    <glyph glyph-name="period" unicode="." 
d="M614 362q94 0 151.5 -52t57.5 -136q0 -83 -58.5 -135.5t-150.5 -52.5q-90 0 -149 53t-59 135q0 84 58 136t150 52z" />
    <glyph glyph-name="slash" unicode="/" 
d="M1018 1243l-586 -1255q-49 -105 -104 -105q-48 0 -82.5 29.5t-34.5 71.5q0 36 27 90l2 4l585 1253q50 107 105 107q45 0 81 -29t36 -72q0 -32 -29 -94z" />
    <glyph glyph-name="zero" unicode="0" 
d="M614 1069q-106 0 -167.5 -117.5t-61.5 -318.5q0 -207 61.5 -323.5t167.5 -116.5q107 0 168.5 115.5t61.5 324.5q0 206 -61 321t-169 115zM612 1294q230 0 365 -178t135 -485q0 -306 -135 -485t-365 -179q-227 0 -361 179t-134 485q0 305 134 484t361 179z" />
    <glyph glyph-name="one" unicode="1" 
d="M766 1200v-987h162q127 0 127 -107q0 -106 -127 -106h-590q-127 0 -127 106q0 107 127 107h186v844l-112 -29q-46 -12 -68 -12q-86 0 -86 100q0 68 102 96l248 68q58 16 84 16q74 0 74 -96z" />
    <glyph glyph-name="two" unicode="2" 
d="M784 487l-303 -262h350v6q0 101 109 101q92 0 92 -94v-13l-8 -155q-2 -42 -14 -56t-45 -14h-719q-121 0 -121 96q0 73 82 152l407 393q131 126 131 256q0 178 -176 178q-103 0 -155 -59q-12 -13 -29 -43q-45 -78 -106 -78q-101 0 -101 131q0 69 17 103q15 31 63 63
q150 102 352 102q187 0 298.5 -101.5t111.5 -274.5q0 -227 -236 -431z" />
    <glyph glyph-name="three" unicode="3" 
d="M797 686q227 -71 227 -315q0 -187 -127.5 -296.5t-343.5 -109.5q-174 0 -290 57.5t-116 141.5q0 47 31.5 78.5t83.5 31.5q-3 0 127.5 -45t179.5 -45q195 0 195 195q0 104 -45 146.5t-160 45.5q-60 1 -83 24t-23 81q0 79 86 92q14 2 18 2q103 14 137.5 48t34.5 122
q0 150 -147 150q-47 0 -169 -46.5t-124 -46.5q-86 0 -86 90q0 85 119 146t290 61q174 0 277.5 -89.5t103.5 -239.5q0 -188 -196 -279z" />
    <glyph glyph-name="four" unicode="4" 
d="M881 1206v-706q2 -1 5.5 -1.5t10.5 -0.5q8 0 44 25.5t46 25.5q90 0 90 -78q0 -21 -6 -41l-22 -74q-12 -41 -56 -41h-112v-125h59q10 0 23 -1t18 -1q36 0 61 -26.5t25 -67.5q0 -94 -127 -94h-422q-125 0 -125 94q0 96 125 96h146v125h-461q-53 0 -53 62v61q0 60 24 101
l420 714q22 37 51 37h16q7 0 11 -2l178 -31q31 -5 31 -51zM350 500h314v553z" />
    <glyph glyph-name="five" unicode="5" 
d="M909 1038h-477v-231q120 37 217 37q180 0 291 -118t111 -312q0 -218 -136 -332.5t-395 -114.5q-379 0 -379 162q0 49 34 83t81 34q-1 0 125 -29t166 -29q237 0 237 224q0 105 -58 166t-159 61q-36 0 -152 -41t-120 -41q-105 0 -105 139v484q0 49 13.5 65.5t50.5 16.5h655
q62 0 86.5 -24.5t24.5 -88.5q0 -63 -24 -87t-87 -24z" />
    <glyph glyph-name="six" unicode="6" 
d="M811 379q0 98 -54 160.5t-139 62.5q-81 0 -136.5 -61.5t-55.5 -151.5q0 -99 56.5 -162t144.5 -63q81 0 132.5 59.5t51.5 155.5zM422 707q102 114 262 114q162 0 271.5 -122t109.5 -304q0 -192 -124 -309t-327 -117q-212 0 -334 155t-122 425q0 336 188.5 540.5
t499.5 204.5q194 0 194 -73q0 -90 -141 -99q-45 -3 -94 -8q-302 -31 -383 -407z" />
    <glyph glyph-name="seven" unicode="7" 
d="M971 1210v-55l-324 -1126q-13 -45 -59 -45h-185q-34 0 -34 30q0 20 4 31l358 993h-430l-4 -18q-16 -74 -92 -74q-82 0 -82 78q0 5 1 12.5t1 12.5l18 155q7 58 68 58h707q53 0 53 -52z" />
    <glyph glyph-name="eight" unicode="8" 
d="M614 537q-92 0 -148 -51t-56 -136q0 -81 58.5 -133.5t145.5 -52.5q94 0 149.5 50.5t55.5 135.5q0 82 -56.5 134.5t-148.5 52.5zM842 647q235 -85 235 -307q0 -165 -129.5 -269t-333.5 -104q-201 0 -331.5 103.5t-130.5 265.5q0 223 235 311q-221 96 -221 293
q0 154 125 254t323 100q196 0 323.5 -100.5t127.5 -253.5q0 -199 -223 -293zM614 1106q-84 0 -139 -50t-55 -126t56 -126t138 -50q88 0 140.5 48.5t52.5 127.5q0 78 -54.5 127t-138.5 49z" />
    <glyph glyph-name="nine" unicode="9" 
d="M797 555q-100 -115 -262 -115t-271.5 123.5t-109.5 302.5q0 191 123.5 308.5t326.5 117.5q212 0 334.5 -154.5t122.5 -424.5q0 -337 -189 -541.5t-499 -204.5q-195 0 -195 74q0 90 141 98q60 3 97 8q158 19 248.5 115.5t132.5 292.5zM793 872q0 102 -56 164t-145 62
q-82 0 -133 -59.5t-51 -155.5q0 -99 54 -161.5t138 -62.5q83 0 138 59.5t55 153.5z" />
    <glyph glyph-name="colon" unicode=":" 
d="M614 362q94 0 151.5 -51.5t57.5 -134.5q0 -85 -58.5 -137.5t-150.5 -52.5q-90 0 -149 53t-59 137q0 82 58 134t150 52zM614 895q96 0 151.5 -51t55.5 -135q0 -85 -58 -138t-149 -53t-149.5 53.5t-58.5 137.5q0 83 57.5 134.5t150.5 51.5z" />
    <glyph glyph-name="semicolon" unicode=";" 
d="M563 346h238q35 0 35 -22l-2 -10q-2 -9 -7 -19l-299 -586q-18 -35 -49 -35q-9 0 -20 4l-76 27q-35 12 -35 39q0 14 0.5 18.5t1.5 8.5l142 520q9 34 22 44.5t49 10.5zM608 895q94 0 151.5 -51.5t57.5 -134.5q0 -86 -58.5 -138.5t-150.5 -52.5q-90 0 -148.5 52.5
t-58.5 138.5q0 82 56.5 134t150.5 52z" />
    <glyph glyph-name="less" unicode="&#x3c;" 
d="M1040 940l-651 -309l651 -309q99 -47 99 -113q0 -94 -95 -94q-36 0 -92 26l-788 363q-6 3 -19 8q-106 49 -106 115q0 67 111 118l8 5l794 370q62 29 92 29q95 0 95 -94q0 -68 -99 -115z" />
    <glyph glyph-name="equal" unicode="=" 
d="M168 901h895q92 0 92 -102q0 -103 -92 -103h-895q-94 0 -94 103q0 102 94 102zM168 565h895q92 0 92 -102q0 -103 -92 -103h-895q-94 0 -94 103q0 102 94 102z" />
    <glyph glyph-name="greater" unicode="&#x3e;" 
d="M190 322l652 309l-652 309q-98 46 -98 115q0 94 92 94q33 0 95 -29l800 -375q111 -52 111 -118q0 -67 -107 -115q-9 -6 -16 -8l-791 -363q-57 -26 -92 -26q-92 0 -92 94q0 67 98 113z" />
    <glyph glyph-name="question" unicode="?" 
d="M537 303q90 0 143 -43.5t53 -114.5q0 -72 -55.5 -115.5t-140.5 -43.5q-87 0 -141 44.5t-54 114.5q0 71 52.5 114.5t142.5 43.5zM643 537v-78q0 -88 -111 -88q-110 0 -110 86v59q0 73 23.5 110t93.5 74q30 16 65 33q152 74 152 176q0 73 -49 115.5t-134 42.5
q-79 0 -109.5 -15.5t-41.5 -60.5q-14 -57 -35.5 -75.5t-69.5 -18.5q-84 0 -84 98v127q0 56 110.5 93.5t274.5 37.5q183 0 288.5 -94.5t105.5 -259.5q0 -269 -369 -362z" />
    <glyph glyph-name="at" unicode="@" 
d="M838 377q-90 -41 -174 -41q-97 0 -161.5 79.5t-64.5 196.5q0 149 89 235.5t241 86.5q6 0 16.5 -1t18.5 -1q0 256 -174 256q-130 0 -202.5 -139.5t-72.5 -393.5q0 -577 332 -577q37 0 178 35q58 0 58 -82q0 -133 -238 -133q-268 0 -408.5 190.5t-140.5 552.5
q0 345 134 536t374 191q198 0 286.5 -114.5t88.5 -366.5v-375q51 -51 51 -96q0 -38 -28 -63t-72 -25q-43 0 -131 49zM803 524v254q-6 2 -13 2h-20q-69 0 -110.5 -42.5t-41.5 -112.5q0 -121 107 -121q26 0 78 20z" />
    <glyph glyph-name="A" unicode="A" 
d="M801 1090v-3l317 -868h17q110 0 110 -108q0 -111 -127 -111h-301q-127 0 -127 111q0 108 127 108h35l-41 117h-432l-43 -117h35q127 0 127 -108q0 -111 -127 -111h-258q-127 0 -127 111q0 108 110 108h17l268 746h-80q-127 0 -127 110q0 111 127 111h375q89 0 125 -96z
M449 543h290l-145 422z" />
    <glyph glyph-name="B" unicode="B" 
d="M600 518h-160v-305h150q156 0 222.5 34.5t66.5 117.5q0 84 -62 118.5t-217 34.5zM950 629q211 -76 211 -287q0 -189 -170 -289q-90 -53 -276 -53h-522q-123 0 -123 111q0 108 106 108h17v746h-17q-106 0 -106 110q0 111 123 111h460q430 0 430 -322q0 -159 -133 -235z
M606 971h-166v-252h135q120 0 172 29t52 98q0 125 -193 125z" />
    <glyph glyph-name="C" unicode="C" 
d="M928 1153q36 66 94 66q89 0 90 -115l2 -260q1 -69 -21 -93t-83 -24q-74 0 -105 100q-29 94 -85 133t-154 39q-318 0 -318 -405q0 -194 82.5 -300t237.5 -106q66 0 230 70t161 70q40 0 66 -33t26 -82q0 -91 -157 -167.5t-347 -76.5q-262 0 -424 173t-162 452
q0 269 164 447t416 178q136 0 287 -66z" />
    <glyph glyph-name="D" unicode="D" 
d="M176 219h17v746h-17q-110 0 -110 110q0 111 127 111h247q342 0 471 -78q250 -151 250 -514q0 -235 -113.5 -389.5t-311.5 -189.5q-86 -15 -244 -15h-299q-127 0 -127 111q0 108 110 108zM451 969v-750h57q369 0 369 377q0 375 -367 375h-36q-13 0 -23 -2z" />
    <glyph glyph-name="E" unicode="E" 
d="M901 870v105h-465v-256h176v12q0 113 101 113q102 0 102 -90q0 -2 1 -12.5t1 -22.5v-207q0 -125 -102 -125q-103 0 -103 107v18h-176v-299h465v119q0 125 109 125q106 0 106 -125v-242q0 -54 -21 -72t-83 -18h-819q-123 0 -123 111q0 108 106 108h17v746h-17
q-106 0 -106 110q0 111 123 111h819q61 0 82.5 -18.5t21.5 -73.5v-224q0 -127 -106 -127q-109 0 -109 127z" />
    <glyph glyph-name="F" unicode="F" 
d="M911 870v105h-465v-256h175v12q0 113 102 113t102 -90v-242q0 -125 -102 -125t-102 107v18h-175v-293h56q123 0 123 -108q0 -111 -123 -111h-299q-123 0 -123 111q0 108 106 108h17v746h-17q-106 0 -106 110q0 111 123 111h819q61 0 82.5 -18.5t21.5 -73.5v-224
q0 -127 -108 -127q-107 0 -107 127z" />
    <glyph glyph-name="G" unicode="G" 
d="M918 1153q36 66 94 66q89 0 90 -115l2 -260q1 -70 -21 -93.5t-84 -23.5q-78 0 -104 94q-50 178 -240 178q-317 0 -317 -405q0 -197 86 -304.5t242 -107.5q68 0 190 35v158h-113q-125 0 -125 108q0 111 125 111h361q71 0 99 -24.5t28 -84.5q0 -110 -111 -110h-16v-250
q0 -48 -35 -70q-56 -35 -180 -61q-127 -25 -252 -25q-262 0 -424 173t-162 452q0 269 164 447t416 178q136 0 287 -66z" />
    <glyph glyph-name="H" unicode="H" 
d="M467 965h-16v-230h327v230h-16q-111 0 -111 110q0 111 127 111h258q125 0 125 -111q0 -110 -108 -110h-17v-746h17q110 0 110 -108q0 -111 -127 -111h-258q-127 0 -127 111q0 108 111 108h16v295h-327v-295h16q111 0 111 -108q0 -111 -127 -111h-258q-127 0 -127 111
q0 108 110 108h17v746h-17q-108 0 -108 110q0 111 125 111h258q127 0 127 -111q0 -110 -111 -110z" />
    <glyph glyph-name="I" unicode="I" 
d="M911 965h-168v-746h168q127 0 127 -108q0 -111 -127 -111h-594q-127 0 -127 111q0 108 127 108h168v746h-168q-127 0 -127 110q0 109 127 109h594q71 0 99 -24.5t28 -84.5q0 -110 -127 -110z" />
    <glyph glyph-name="J" unicode="J" 
d="M1059 965h-84v-572q0 -132 -17 -194q-63 -230 -432 -230q-186 0 -346 72q-41 19 -56 52.5t-15 103.5v206q0 86 25 120t87 34q89 0 98 -131q1 -18 3 -35q12 -113 52.5 -157t135.5 -44q116 0 161.5 60t45.5 221v494h-168q-127 0 -127 110q0 109 127 109h510q71 0 99 -24.5
t28 -84.5q0 -110 -127 -110z" />
    <glyph glyph-name="K" unicode="K" 
d="M467 965h-16v-303l309 309q-94 10 -94 104q0 111 125 111h245q125 0 125 -111q0 -110 -112 -110h-23l-291 -289q153 -114 305 -457h33q117 0 117 -108q0 -111 -127 -111h-123q-82 0 -131 109l-14 32q-114 238 -250 355l-94 -90v-187h16q111 0 111 -108q0 -111 -127 -111
h-258q-127 0 -127 111q0 108 110 108h17v746h-17q-108 0 -108 110q0 111 125 111h258q127 0 127 -111q0 -110 -111 -110z" />
    <glyph glyph-name="L" unicode="L" 
d="M592 965h-86v-746h455v178q0 127 106 127q109 0 109 -127v-307q0 -54 -21 -72t-84 -18h-907q-121 0 -121 111q0 108 121 108h88v746h-88q-121 0 -121 110q0 111 123 111h426q123 0 123 -111q0 -110 -123 -110z" />
    <glyph glyph-name="M" unicode="M" 
d="M420 1079l196 -567l191 567q36 107 135 107h156q127 0 127 -111q0 -110 -111 -110h-16l28 -746h17q108 0 108 -108q0 -111 -125 -111h-225q-125 0 -125 111q0 108 109 108h16l-14 610l-146 -454q-31 -96 -127 -96q-98 0 -129 96l-145 454l-14 -610h16q109 0 109 -108
q0 -111 -125 -111h-226q-125 0 -125 111q0 108 109 108h16l29 746h-16q-111 0 -111 110q0 111 127 111h156q98 0 135 -107z" />
    <glyph glyph-name="N" unicode="N" 
d="M465 1108l381 -694v551h-55q-123 0 -123 110q0 111 123 111h284q123 0 123 -111q0 -110 -106 -110h-17v-908q0 -49 -10 -60t-45 -11h-100q-75 0 -101 45l-416 731v-543h58q121 0 121 -108q0 -111 -121 -111h-287q-123 0 -123 111q0 108 107 108h16v746h-16
q-107 0 -107 110q0 111 123 111h164q58 0 82 -17q19 -14 45 -61z" />
    <glyph glyph-name="O" unicode="O" 
d="M614 987q-129 0 -202.5 -105.5t-73.5 -287.5q0 -183 73.5 -289t202.5 -106q130 0 203.5 106t73.5 289q0 187 -73 290t-204 103zM614 1219q247 0 405.5 -175.5t158.5 -449.5q0 -275 -158 -450t-406 -175q-244 0 -404.5 176.5t-160.5 448.5q0 274 157.5 449.5t407.5 175.5z
" />
    <glyph glyph-name="P" unicode="P" 
d="M649 424h-170v-205h103q120 0 120 -108q0 -111 -120 -111h-346q-123 0 -123 111q0 108 106 108h17v746h-17q-106 0 -106 110q0 111 123 111h413q496 0 496 -371q0 -391 -496 -391zM621 965h-142v-316h142q237 0 237 160q0 156 -237 156z" />
    <glyph glyph-name="Q" unicode="Q" 
d="M557 -16l-78 -78q87 28 166 28q63 0 168.5 -23.5t104.5 -23.5q19 0 84 21.5t69 21.5q37 0 61.5 -28.5t24.5 -71.5q0 -57 -67 -97t-166 -40q-30 0 -167 31.5t-157 31.5q-44 0 -158 -39t-112 -39q-41 0 -72 28.5t-31 68.5q0 54 86 141l101 102q-168 61 -266.5 219
t-98.5 365q0 272 157.5 444.5t407.5 172.5q248 0 406 -173t158 -444q0 -270 -157 -445t-398 -175q-38 0 -66 2zM614 987q-129 0 -202.5 -105.5t-73.5 -287.5q0 -183 73.5 -289t202.5 -106q130 0 203.5 106t73.5 289q0 187 -73 290t-204 103z" />
    <glyph glyph-name="R" unicode="R" 
d="M864 545q24 -16 29 -22q20 -19 29 -46l163 -258h31q117 0 117 -108q0 -111 -127 -111h-123q-68 0 -106 59l-3 2l-245 377q-29 45 -70 45h-94v-264h16q109 0 109 -108q0 -111 -125 -111h-258q-125 0 -125 111q0 108 108 108h17v746h-17q-108 0 -108 110q0 111 125 111h461
q430 0 430 -326q0 -234 -234 -315zM621 971h-168v-283h135q124 0 174.5 32t50.5 109q0 142 -192 142z" />
    <glyph glyph-name="S" unicode="S" 
d="M864 1163q27 56 92 56q56 0 72 -17q20 -20 21 -90l4 -203q2 -106 -103 -106q-72 0 -106 76q-1 6 -4 11l-4 7q-71 125 -209 125q-89 0 -145 -41.5t-56 -106.5q0 -93 254 -145l68 -14q189 -39 278 -128q86 -86 86 -235q0 -185 -124.5 -284t-358.5 -99q-173 0 -301 49
q-33 -49 -95 -49t-86 22q-27 24 -28 87l-4 246q-1 67 23.5 92.5t86.5 25.5q66 0 109 -94l16 -35q78 -153 279 -153q194 0 194 145q0 106 -231 162q-72 17 -109 27q-187 49 -265.5 125t-78.5 212q0 171 128.5 279.5t332.5 108.5q135 0 264 -56z" />
    <glyph glyph-name="T" unicode="T" 
d="M958 764l-6 203h-209v-746h168q125 0 125 -110q0 -111 -125 -111h-594q-124 0 -124 111q0 110 124 110h168v746h-209l-6 -228q-3 -102 -100 -102q-109 0 -109 119v8l11 299q3 82 21 103.5t91 21.5h860q68 0 87 -17q23 -21 26 -108l10 -307q4 -119 -106 -119
q-99 0 -103 127z" />
    <glyph glyph-name="U" unicode="U" 
d="M424 965h-16v-523q0 -139 48.5 -197.5t161.5 -58.5q112 0 161.5 58.5t49.5 197.5v523h-16q-108 0 -108 110q0 111 124 111h250q125 0 125 -111q0 -110 -108 -110h-17v-519q0 -252 -109.5 -364.5t-348.5 -112.5q-251 0 -361 110.5t-110 366.5v519h-17q-110 0 -110 110
q0 111 127 111h258q127 0 127 -111q0 -110 -111 -110z" />
    <glyph glyph-name="V" unicode="V" 
d="M420 965h-27l240 -709l248 709h-27q-123 0 -123 110q0 111 125 111h252q125 0 125 -111q0 -110 -109 -110h-16l-305 -867q-24 -67 -47 -84q-19 -14 -76 -14h-123q-90 0 -121 92l-2 6l-311 867h-17q-104 0 -104 110q0 61 26 86t95 25h297q123 0 123 -111q0 -110 -123 -110
z" />
    <glyph glyph-name="W" unicode="W" 
d="M352 965h-26l36 -586l123 432q27 96 129 96q99 0 127 -96l125 -432l35 586h-27q-114 0 -114 110q0 61 28 86t97 25h241q125 0 125 -111q0 -110 -108 -110h-17l-96 -881q-6 -53 -19 -67q-16 -17 -71 -17h-47q-46 0 -65 19q-16 16 -35 77l-183 594l-176 -594
q-18 -61 -39 -80q-17 -16 -61 -16h-47q-54 0 -70 17q-12 13 -18 67l-99 881h-16q-109 0 -109 110q0 111 125 111h242q125 0 125 -111q0 -110 -115 -110z" />
    <glyph glyph-name="X" unicode="X" 
d="M487 965l136 -191l131 191q-99 8 -99 110q0 111 125 111h224q126 0 126 -111q0 -110 -114 -110h-29l-250 -347l295 -397h25q114 0 114 -110q0 -111 -127 -111h-268q-127 0 -127 111q0 104 107 110l-154 223l-158 -223q113 -2 113 -110q0 -111 -127 -111h-233
q-125 0 -125 111q0 110 114 110h25l274 375l-266 369h-24q-115 0 -115 110q0 111 127 111h256q127 0 127 -111q0 -104 -103 -110z" />
    <glyph glyph-name="Y" unicode="Y" 
d="M481 965h-14l156 -326l149 326h-4q-92 0 -92 110q0 111 108 111h228q123 0 123 -111q0 -110 -107 -110h-16l-269 -500v-246h131q125 0 125 -108q0 -111 -127 -111h-518q-125 0 -125 111q0 108 125 108h131v217l-284 529h-17q-106 0 -106 110q0 111 123 111h262
q110 0 110 -111q0 -110 -92 -110z" />
    <glyph glyph-name="Z" unicode="Z" 
d="M1018 999l-535 -778h336v162q0 127 115 127q106 0 106 -115v-12l-10 -258q-3 -88 -27 -109q-18 -16 -92 -16h-661q-111 0 -111 96q0 49 27 88l539 783h-310l-6 -142q-5 -127 -115 -127q-106 0 -106 115v12l10 238q4 86 24 106q18 17 95 17h637q110 0 110 -96
q0 -53 -26 -91z" />
    <glyph glyph-name="bracketleft" unicode="[" 
d="M803 1030h-150v-1243h150q69 0 69 -80q0 -78 -67 -78h-307q-80 0 -80 66v1425q0 66 80 66h307q67 0 67 -78t-69 -78z" />
    <glyph glyph-name="backslash" unicode="\" 
d="M825 -12l-585 1255q-29 62 -29 94q0 42 34.5 71.5t82.5 29.5q30 0 54 -23q19 -18 50 -84l586 -1253q29 -62 29 -94q0 -43 -36 -72t-83 -29q-54 0 -103 105z" />
    <glyph glyph-name="bracketright" unicode="]" 
d="M371 -213h149v1243h-149q-70 0 -70 78t68 78h307q80 0 80 -66v-1425q0 -66 -80 -66h-307q-68 0 -68 78q0 80 70 80z" />
    <glyph glyph-name="asciicircum" unicode="^" 
d="M932 877l-318 260l-307 -254q-15 -15 -39 -15q-57 0 -57 54q0 27 27 59l307 360q21 31 69 31q43 0 70 -31l309 -360q25 -29 25 -61q0 -54 -55 -54q-18 0 -31 11z" />
    <glyph glyph-name="underscore" unicode="_" 
d="M1247 -483h-1265v188h1265v-188z" />
    <glyph glyph-name="grave" unicode="`" 
d="M352 1366l477 -279l-34 -77l-523 186q-26 9 -26 41l2 12l2 4l41 86q15 31 45 31q9 0 16 -4z" />
    <glyph glyph-name="a" unicode="a" 
d="M1022 590v-371h16q111 0 111 -110q0 -109 -127 -109h-94q-52 0 -74 19q-25 18 -41 69q-169 -113 -364 -113q-161 0 -253 80t-92 219q0 150 119 233t334 83q94 0 223 -21v19q0 184 -172 184q-36 0 -169 -49t-150 -49q-105 0 -105 100q0 81 119.5 128.5t321.5 47.5
q214 0 305.5 -82.5t91.5 -277.5zM780 258v154q-101 22 -170 22q-235 0 -235 -139q0 -119 155 -119q137 0 250 82z" />
    <glyph glyph-name="b" unicode="b" 
d="M655 711q-98 0 -162.5 -73.5t-64.5 -186.5q0 -114 64.5 -188.5t162.5 -74.5q99 0 163.5 73.5t64.5 189.5q0 112 -65 186t-163 74zM434 1243v-409q104 90 252 90q208 0 340.5 -136t132.5 -354q0 -197 -136 -328t-339 -131q-193 0 -285 134v-66q0 -43 -59 -43h-154
q-125 0 -125 111q0 108 109 108h16v868h-16q-111 0 -111 111t127 111h187q61 0 61 -66z" />
    <glyph glyph-name="c" unicode="c" 
d="M911 870q24 78 103 78q100 0 100 -145v-164q0 -119 -102 -119q-66 0 -115 82q-79 133 -264 133q-119 0 -192.5 -76.5t-73.5 -195.5q0 -125 76.5 -201t207.5 -76q111 0 377 131q37 0 61.5 -28t24.5 -72q0 -96 -143.5 -169t-337.5 -73q-240 0 -392.5 136.5t-152.5 349.5
q0 209 149 348t379 139q157 0 295 -78z" />
    <glyph glyph-name="d" unicode="d" 
d="M1040 1243v-1024h17q108 0 108 -108q0 -111 -125 -111h-153q-60 0 -60 43v70q-100 -138 -299 -138q-196 0 -328 134t-132 333q0 208 134 345t339 137q150 0 262 -90v253h-133q-127 0 -127 111t127 111h311q59 0 59 -66zM571 711q-98 0 -162.5 -73.5t-64.5 -186.5
q0 -114 64.5 -188.5t162.5 -74.5q99 0 163.5 73.5t64.5 189.5q0 112 -65 186t-163 74z" />
    <glyph glyph-name="e" unicode="e" 
d="M987 403h-645q50 -221 299 -221q100 0 246 61l145 60q84 0 84 -98q0 -95 -140.5 -162.5t-342.5 -67.5q-240 0 -392.5 136.5t-152.5 349.5q0 212 151.5 348.5t393.5 136.5q215 0 357.5 -126t142.5 -314q0 -61 -29 -82t-117 -21zM342 559h539q-34 195 -271 195
q-215 0 -268 -195z" />
    <glyph glyph-name="f" unicode="f" 
d="M678 928v-33h215q127 0 127 -109q0 -110 -127 -110h-215v-457h199q127 0 127 -108q0 -111 -127 -111h-551q-127 0 -127 111q0 108 127 108h106v457h-106q-127 0 -127 110q0 109 127 109h106v57q0 196 100.5 278.5t344.5 82.5q245 0 245 -123q0 -92 -98 -92q-17 0 -93.5 9
t-84.5 9q-92 0 -130 -43t-38 -145z" />
    <glyph glyph-name="g" unicode="g" 
d="M571 737q-97 0 -162 -72.5t-65 -179.5t65 -178t162 -71q99 0 163.5 70.5t64.5 178.5q0 112 -64 182t-164 70zM819 831v52q0 41 58 41h163q125 0 125 -109q0 -110 -108 -110h-17v-689q0 -219 -118 -318t-383 -99q-316 0 -316 133q0 48 32 78t81 30q169 -18 221 -18
q142 0 197 54t55 194v45q-140 -80 -285 -80q-200 0 -328 125.5t-128 322.5q0 203 134 334t341 131q179 0 276 -117z" />
    <glyph glyph-name="h" unicode="h" 
d="M453 1243v-420q71 125 252 125q329 0 329 -356v-373h17q108 0 108 -108q0 -111 -125 -111h-248q-124 0 -124 111q0 108 108 108h16v291q0 129 -30.5 178t-108.5 49q-83 0 -138.5 -64.5t-55.5 -162.5v-291h16q109 0 109 -108q0 -111 -125 -111h-248q-125 0 -125 111
q0 108 108 108h17v868h-17q-110 0 -110 111t127 111h188q60 0 60 -66z" />
    <glyph glyph-name="i" unicode="i" 
d="M754 881v-662h215q127 0 127 -108q0 -111 -127 -111h-676q-127 0 -127 111q0 108 127 108h215v486h-113q-125 0 -125 110q0 109 125 109h301q58 0 58 -43zM610 1376q76 0 98.5 -29.5t22.5 -132.5q0 -102 -21.5 -126.5t-101.5 -24.5q-76 0 -99.5 23t-23.5 92
q0 125 22.5 161.5t102.5 36.5z" />
    <glyph glyph-name="j" unicode="j" 
d="M623 115v590h-334q-127 0 -127 110q0 109 127 109h522q59 0 59 -43v-865q0 -415 -452 -415q-156 0 -222.5 31.5t-66.5 107.5q0 96 102 96q8 0 94 -10t117 -10q108 0 144.5 61.5t36.5 237.5zM682 1376q75 0 98 -29.5t23 -132.5q0 -104 -20.5 -127.5t-100.5 -23.5
q-75 0 -100 22.5t-25 92.5q0 125 22.5 161.5t102.5 36.5z" />
    <glyph glyph-name="k" unicode="k" 
d="M455 1243v-700l211 190q-54 20 -54 80q0 61 26 86t97 25h221q125 0 125 -109q0 -46 -15.5 -64.5t-68.5 -29.5q-90 -18 -168 -100l-71 -74l264 -328h25q116 0 116 -108q0 -111 -127 -111h-245q-123 0 -123 92q0 67 73 94l-163 199l-123 -113v-206q0 -66 -60 -66h-180
q-123 0 -123 111q0 108 107 108h16v868h-16q-109 0 -109 111t125 111h180q60 0 60 -66z" />
    <glyph glyph-name="l" unicode="l" 
d="M737 1266v-1047h215q125 0 125 -108q0 -111 -125 -111h-678q-124 0 -124 111q0 59 27.5 83.5t96.5 24.5h215v868h-110q-127 0 -127 111t127 111h299q59 0 59 -43z" />
    <glyph glyph-name="m" unicode="m" 
d="M678 856q86 92 215 92q137 0 196.5 -81.5t59.5 -268.5v-379h14q94 0 94 -108q0 -111 -108 -111h-170q-57 0 -57 43v565q0 133 -82 133q-105 0 -105 -172v-350h15q94 0 94 -108q0 -111 -109 -111h-170q-59 0 -59 43v565q0 133 -80 133q-107 0 -107 -172v-350h15
q94 0 94 -108q0 -111 -109 -111h-227q-108 0 -108 111q0 108 94 108h14v486h-14q-96 0 -96 110q0 109 110 109h135q41 0 55.5 -16.5t14.5 -63.5q77 104 205 104q113 0 176 -92z" />
    <glyph glyph-name="n" unicode="n" 
d="M1034 555v-334h13q112 0 112 -110q0 -111 -125 -111h-246q-126 0 -126 111q0 110 114 110h12v289q0 122 -33 171.5t-112 49.5q-83 0 -135.5 -62t-52.5 -159v-289h12q113 0 113 -110q0 -111 -125 -111h-248q-125 0 -125 111q0 110 113 110h12v484h-17q-110 0 -110 108
q0 111 127 111h170q57 0 57 -43v-78q93 145 283 145q317 0 317 -393z" />
    <glyph glyph-name="o" unicode="o" 
d="M614 735q-117 0 -192.5 -76t-75.5 -196q0 -119 76 -198t192 -79q117 0 193 77.5t76 199.5q0 120 -75.5 196t-193.5 76zM614 946q243 0 394 -135.5t151 -349.5q0 -216 -151.5 -351t-393.5 -135q-241 0 -392.5 135.5t-151.5 350.5q0 212 151.5 348.5t392.5 136.5z" />
    <glyph glyph-name="p" unicode="p" 
d="M424 94v-272h127q127 0 127 -111q0 -108 -127 -108h-424q-125 0 -125 108q0 111 125 111h59v883h-16q-109 0 -109 110q0 109 125 109h154q57 0 57 -41v-72q104 137 287 137q205 0 340 -130t135 -331q0 -207 -131 -344t-330 -137q-168 0 -274 88zM655 735q-99 0 -163 -73
t-64 -187t64 -187t163 -73t163.5 73.5t64.5 186.5q0 114 -64 187t-164 73z" />
    <glyph glyph-name="q" unicode="q" 
d="M571 735q-99 0 -163 -73t-64 -187t64 -187t163 -73t163.5 73.5t64.5 186.5q0 114 -64 187t-164 73zM829 811v72q0 41 58 41h153q125 0 125 -109q0 -110 -108 -110h-17v-883h60q125 0 125 -111q0 -108 -125 -108h-424q-125 0 -125 108q0 111 125 111h127v272
q-106 -88 -275 -88q-196 0 -327 137t-131 344q0 199 134 330t339 131q185 0 286 -137z" />
    <glyph glyph-name="r" unicode="r" 
d="M569 543v-324h236q125 0 125 -108q0 -111 -125 -111h-559q-127 0 -127 111q0 108 127 108h76v486h-43q-125 0 -125 110q0 60 27 84.5t98 24.5h213q57 0 57 -43v-148q202 217 407 217q98 0 156.5 -44.5t58.5 -119.5q0 -58 -40.5 -95.5t-102.5 -37.5q-23 0 -104 33t-88 33
q-94 0 -267 -176z" />
    <glyph glyph-name="s" unicode="s" 
d="M350 14q-55 -41 -110 -41q-78 0 -78 109v133q0 121 98 121q57 0 96 -57q15 -22 37 -46q101 -88 262 -88q72 0 115 28t43 73q0 82 -273 118l-38 5q-344 50 -344 284q0 295 393 295q135 0 274 -43q39 49 97 49q84 0 84 -102v-123q0 -90 -84 -90q-15 0 -139 71.5t-201 71.5
q-164 0 -164 -96q0 -72 180 -94l82 -10q100 -12 192 -41q78 -26 119 -57q84 -64 84 -195q0 -151 -112.5 -233.5t-315.5 -82.5q-148 0 -297 41z" />
    <glyph glyph-name="t" unicode="t" 
d="M545 1102v-234h305q127 0 127 -108q0 -111 -127 -111h-305v-256q0 -106 32.5 -147t116.5 -41q46 0 184 45t142 45q42 0 71 -32t29 -79q0 -78 -139.5 -141t-316.5 -63q-212 0 -304 108q-61 71 -61 283v278h-94q-125 0 -125 111q0 108 125 108h94v234q0 125 123 125
q67 0 95 -28t28 -97z" />
    <glyph glyph-name="u" unicode="u" 
d="M772 416v289h-16q-109 0 -109 110q0 109 125 109h189q57 0 57 -43v-662h16q111 0 111 -108q0 -111 -127 -111h-168q-59 0 -59 45v76q-96 -144 -281 -144q-317 0 -317 394v334h-17q-110 0 -110 110q0 109 127 109h188q55 0 55 -43v-465q0 -123 34 -173t112 -50
q83 0 136.5 62t53.5 161z" />
    <glyph glyph-name="v" unicode="v" 
d="M455 705h-17l180 -426l189 426h-16q-111 0 -111 110q0 109 127 109h235q71 0 99 -24.5t28 -84.5q0 -110 -110 -110h-17l-297 -631q-31 -66 -59 -84q-23 -15 -82 -15q-100 0 -135 84q-1 6 -6 15l-279 631h-16q-111 0 -111 110q0 109 127 109h254q127 0 127 -109
q0 -110 -110 -110z" />
    <glyph glyph-name="w" unicode="w" 
d="M324 705h-17l80 -492l107 381q16 58 43 79q24 19 77 19q55 0 79.5 -20t41.5 -78l111 -381l76 492h-17q-110 0 -110 110q0 109 127 109h235q127 0 127 -109q0 -110 -110 -110h-17l-125 -631q-20 -99 -151 -99q-126 0 -156 99l-117 389l-104 -389q-26 -99 -158 -99
q-129 0 -149 99l-127 631h-17q-108 0 -108 110q0 109 125 109h237q125 0 125 -109q0 -110 -108 -110z" />
    <glyph glyph-name="x" unicode="x" 
d="M512 723l106 -125l115 125q-63 0 -63 98q0 103 100 103h213q125 0 125 -111q0 -108 -117 -108h-39l-209 -228l250 -256h23q117 0 117 -110q0 -111 -129 -111h-242q-100 0 -100 102q0 99 65 99h8l-127 141l-123 -141h4q68 0 68 -92q0 -109 -100 -109h-213q-125 0 -125 111
q0 110 110 110h19l237 240l-229 244h-31q-119 0 -119 108q0 111 127 111h242q100 0 100 -109q0 -92 -63 -92z" />
    <glyph glyph-name="y" unicode="y" 
d="M455 705h-17l180 -426l189 426h-16q-111 0 -111 110q0 109 127 109h235q71 0 99 -24.5t28 -84.5q0 -110 -110 -110h-17l-411 -883h45q127 0 127 -111q0 -110 -127 -110h-438q-127 0 -127 110q0 111 127 111h155l94 201l-303 682h-16q-111 0 -111 110q0 109 127 109h254
q127 0 127 -109q0 -110 -110 -110z" />
    <glyph glyph-name="z" unicode="z" 
d="M965 711l-476 -510h326l6 69q6 73 28 99t77 26q98 0 98 -125v-147q0 -82 -19.5 -102.5t-95.5 -20.5h-622q-121 0 -121 100q0 59 49 111l485 512h-307v-47q0 -127 -100 -127q-103 0 -103 127v127q0 81 19 101t96 20h590q123 0 123 -105q0 -51 -53 -108z" />
    <glyph glyph-name="braceleft" unicode="{" 
d="M616 461q80 -50 107 -118t27 -220v-148q0 -92 17 -124q12 -23 62 -35q14 -3 33 -6q113 -16 113 -111q0 -102 -121 -102q-152 0 -244 86q-50 47 -69 124q-17 71 -17 220v116q0 108 -28 151q-38 58 -148 58q-94 13 -94 109q0 83 82 104q11 3 55 13q133 26 133 198v119
q0 151 14 214q13 58 52 108q85 108 268 108q117 0 117 -100q0 -95 -121 -113q-10 0 -16 -2q-52 -7 -68 -34q-20 -34 -20 -132v-147q0 -148 -28 -217.5t-106 -118.5z" />
    <glyph glyph-name="bar" unicode="|" 
d="M711 -504h-193v2087h193v-2087z" />
    <glyph glyph-name="braceright" unicode="}" 
d="M612 461q-75 47 -104 119.5t-29 216.5v211q0 89 -104 104q-71 10 -96 33.5t-25 73.5q0 106 117 106q153 0 245 -84q52 -47 70 -116q19 -72 19 -230v-119q0 -175 137 -201q19 -3 51 -10q82 -20 82 -104q0 -88 -84 -107q-16 -3 -45 -8q-141 -27 -141 -203v-116
q0 -145 -13.5 -210.5t-52.5 -113.5q-88 -106 -266 -106q-119 0 -119 108q0 52 26 74.5t95 32.5q60 9 82 32t22 78v201q0 152 26.5 218.5t106.5 119.5z" />
    <glyph glyph-name="asciitilde" unicode="~" 
d="M102 586q0 71 94 131.5t210 60.5q41 0 217 -43t200 -43q37 0 131 36t95 36q77 0 77 -86q0 -71 -93 -132t-208 -61q-43 0 -221 43t-198 43q-37 0 -131 -36.5t-95 -36.5q-78 0 -78 88z" />
    <glyph glyph-name="Adieresis" unicode="&#xc4;" 
d="M200 1430h720v-134h-720v134zM801 1090v-3l317 -868h17q110 0 110 -108q0 -111 -127 -111h-301q-127 0 -127 111q0 108 127 108h35l-41 117h-432l-43 -117h35q127 0 127 -108q0 -111 -127 -111h-258q-127 0 -127 111q0 108 110 108h17l268 746h-80q-127 0 -127 110
q0 111 127 111h375q89 0 125 -96zM449 543h290l-145 422z" />
    <glyph glyph-name="Aring" unicode="&#xc5;" 
d="M801 1090v-3l317 -868h17q110 0 110 -108q0 -111 -127 -111h-301q-127 0 -127 111q0 108 127 108h35l-41 117h-432l-43 -117h35q127 0 127 -108q0 -111 -127 -111h-258q-127 0 -127 111q0 108 110 108h17l268 746h-80q-127 0 -127 110q0 111 127 111h375q89 0 125 -96z
M449 543h290l-145 422zM575 1649q-51 0 -88.5 -37.5t-37.5 -87.5q0 -54 36.5 -91.5t89.5 -37.5q52 0 89.5 37.5t37.5 91.5q0 52 -37 88.5t-90 36.5zM575 1792q113 0 192 -79t79 -191q0 -113 -79 -192t-192 -79t-191.5 78.5t-78.5 192.5q0 112 79 191t191 79z" />
    <glyph glyph-name="Ccedilla" unicode="&#xc7;" 
d="M1112 1104l2 -260q1 -69 -21 -93t-83 -24q-74 0 -105 100q-29 94 -85 133t-154 39q-318 0 -318 -405q0 -194 82.5 -300t237.5 -106q66 0 230 70t161 70q40 0 66 -33t26 -82q0 -91 -152 -164.5t-362 -81.5v-100q3 1 12 2q41 6 60 6q81 0 132.5 -48t51.5 -124
q0 -180 -246 -180q-102 0 -191 35t-89 77q0 37 45 37q-4 0 80.5 -25.5t117.5 -25.5q92 0 92 84q0 76 -100 76q-12 0 -19 -1q-11 -2 -32 -5v200q-222 32 -356 201.5t-134 411.5q0 273 164 452t416 179q136 0 287 -66q36 66 94 66q89 0 90 -115z" />
    <glyph glyph-name="Eacute" unicode="&#xc9;" 
d="M901 870v105h-465v-256h176v12q0 113 101 113q102 0 102 -90q0 -2 1 -12.5t1 -22.5v-207q0 -125 -102 -125q-103 0 -103 107v18h-176v-299h465v119q0 125 109 125q106 0 106 -125v-242q0 -54 -21 -72t-83 -18h-819q-123 0 -123 111q0 108 106 108h17v746h-17
q-106 0 -106 110q0 111 123 111h819q61 0 82.5 -18.5t21.5 -73.5v-224q0 -127 -106 -127q-109 0 -109 127zM985 1466l-522 -186l-35 77l478 279q7 4 16 4q30 0 45 -31l43 -90q2 -13 2 -12q0 -31 -27 -41z" />
    <glyph glyph-name="Ntilde" unicode="&#xd1;" 
d="M465 1108l381 -694v551h-55q-123 0 -123 110q0 111 123 111h284q123 0 123 -111q0 -110 -106 -110h-17v-908q0 -49 -10 -60t-45 -11h-100q-75 0 -101 45l-416 731v-543h58q121 0 121 -108q0 -111 -121 -111h-287q-123 0 -123 111q0 108 107 108h16v746h-16
q-107 0 -107 110q0 111 123 111h164q58 0 82 -17q19 -14 45 -61zM654 1386l-113 31q-44 12 -84 12q-27 0 -83.5 -33.5t-57.5 -33.5q-39 0 -39 41q0 62 71.5 114.5t159.5 52.5q70 0 121 -14l113 -31q51 -14 84 -14q27 0 83 35l56 35q41 0 41 -43q0 -64 -71 -116t-160 -52
q-63 0 -121 16z" />
    <glyph glyph-name="Odieresis" unicode="&#xd6;" 
d="M200 1430h840v-134h-840v134zM614 987q-129 0 -202.5 -105.5t-73.5 -287.5q0 -183 73.5 -289t202.5 -106q130 0 203.5 106t73.5 289q0 187 -73 290t-204 103zM614 1219q247 0 405.5 -175.5t158.5 -449.5q0 -275 -158 -450t-406 -175q-244 0 -404.5 176.5t-160.5 448.5
q0 274 157.5 449.5t407.5 175.5z" />
    <glyph glyph-name="Udieresis" unicode="&#xdc;" 
d="M135 1430h970v-134h-970v134zM424 965h-16v-523q0 -139 48.5 -197.5t161.5 -58.5q112 0 161.5 58.5t49.5 197.5v523h-16q-108 0 -108 110q0 111 124 111h250q125 0 125 -111q0 -110 -108 -110h-17v-519q0 -252 -109.5 -364.5t-348.5 -112.5q-251 0 -361 110.5t-110 366.5
v519h-17q-110 0 -110 110q0 111 127 111h258q127 0 127 -111q0 -110 -111 -110z" />
    <glyph glyph-name="aacute" unicode="&#xe1;" 
d="M1022 590v-371h16q111 0 111 -110q0 -109 -127 -109h-94q-52 0 -74 19q-25 18 -41 69q-169 -113 -364 -113q-161 0 -253 80t-92 219q0 150 119 233t334 83q94 0 223 -21v19q0 184 -172 184q-36 0 -169 -49t-150 -49q-105 0 -105 100q0 81 119.5 128.5t321.5 47.5
q214 0 305.5 -82.5t91.5 -277.5zM780 258v154q-101 22 -170 22q-235 0 -235 -139q0 -119 155 -119q137 0 250 82zM933 1196l-522 -186l-35 77l478 279q7 4 16 4q30 0 45 -31l43 -90q2 -13 2 -12q0 -31 -27 -41z" />
    <glyph glyph-name="agrave" unicode="&#xe0;" 
d="M1022 590v-371h16q111 0 111 -110q0 -109 -127 -109h-94q-52 0 -74 19q-25 18 -41 69q-169 -113 -364 -113q-161 0 -253 80t-92 219q0 150 119 233t334 83q94 0 223 -21v19q0 184 -172 184q-36 0 -169 -49t-150 -49q-105 0 -105 100q0 81 119.5 128.5t321.5 47.5
q214 0 305.5 -82.5t91.5 -277.5zM780 258v154q-101 22 -170 22q-235 0 -235 -139q0 -119 155 -119q137 0 250 82zM329 1366l477 -279l-34 -77l-523 186q-26 9 -26 41l2 12l2 4l41 86q15 31 45 31q9 0 16 -4z" />
    <glyph glyph-name="acircumflex" unicode="&#xe2;" 
d="M1022 590v-371h16q111 0 111 -110q0 -109 -127 -109h-94q-52 0 -74 19q-25 18 -41 69q-169 -113 -364 -113q-161 0 -253 80t-92 219q0 150 119 233t334 83q94 0 223 -21v19q0 184 -172 184q-36 0 -169 -49t-150 -49q-105 0 -105 100q0 81 119.5 128.5t321.5 47.5
q214 0 305.5 -82.5t91.5 -277.5zM780 258v154q-101 22 -170 22q-235 0 -235 -139q0 -119 155 -119q137 0 250 82zM882 1042l-4 2l-287 134l-286 -134q-14 -4 -17 -4q-47 0 -47 50q0 14 12 26l277 219q24 19 61 19q38 0 62 -19l276 -219q13 -10 13 -24q0 -18 -15 -35t-32 -17
q-3 0 -13 2z" />
    <glyph glyph-name="adieresis" unicode="&#xe4;" 
d="M265 1290h700v-134h-700v134zM1022 590v-371h16q111 0 111 -110q0 -109 -127 -109h-94q-52 0 -74 19q-25 18 -41 69q-169 -113 -364 -113q-161 0 -253 80t-92 219q0 150 119 233t334 83q94 0 223 -21v19q0 184 -172 184q-36 0 -169 -49t-150 -49q-105 0 -105 100
q0 81 119.5 128.5t321.5 47.5q214 0 305.5 -82.5t91.5 -277.5zM780 258v154q-101 22 -170 22q-235 0 -235 -139q0 -119 155 -119q137 0 250 82z" />
    <glyph glyph-name="atilde" unicode="&#xe3;" 
d="M1022 590v-371h16q111 0 111 -110q0 -109 -127 -109h-94q-52 0 -74 19q-25 18 -41 69q-169 -113 -364 -113q-161 0 -253 80t-92 219q0 150 119 233t334 83q94 0 223 -21v19q0 184 -172 184q-36 0 -169 -49t-150 -49q-105 0 -105 100q0 81 119.5 128.5t321.5 47.5
q214 0 305.5 -82.5t91.5 -277.5zM780 258v154q-101 22 -170 22q-235 0 -235 -139q0 -119 155 -119q137 0 250 82zM604 1116l-113 31q-44 12 -84 12q-27 0 -83.5 -33.5t-57.5 -33.5q-39 0 -39 41q0 62 71.5 114.5t159.5 52.5q70 0 121 -14l113 -31q51 -14 84 -14q27 0 83 35
l56 35q41 0 41 -43q0 -64 -71 -116t-160 -52q-63 0 -121 16z" />
    <glyph glyph-name="aring" unicode="&#xe5;" 
d="M1022 590v-371h16q111 0 111 -110q0 -109 -127 -109h-94q-52 0 -74 19q-25 18 -41 69q-169 -113 -364 -113q-161 0 -253 80t-92 219q0 150 119 233t334 83q94 0 223 -21v19q0 184 -172 184q-36 0 -169 -49t-150 -49q-105 0 -105 100q0 81 119.5 128.5t321.5 47.5
q214 0 305.5 -82.5t91.5 -277.5zM780 258v154q-101 22 -170 22q-235 0 -235 -139q0 -119 155 -119q137 0 250 82zM610 1421q-52 0 -89.5 -37.5t-37.5 -87.5q0 -53 38 -91t89 -38q52 0 89.5 37.5t37.5 91.5q0 52 -37 88.5t-90 36.5zM610 1565q113 0 192 -79t79 -192
t-79 -191.5t-192 -78.5t-191.5 78.5t-78.5 191.5t79 192t191 79z" />
    <glyph glyph-name="ccedilla" unicode="&#xe7;" 
d="M1114 803v-164q0 -119 -102 -119q-66 0 -115 82q-79 133 -264 133q-119 0 -192.5 -76.5t-73.5 -195.5q0 -125 76.5 -201t207.5 -76q111 0 377 131q37 0 61.5 -28t24.5 -72q0 -95 -134 -163t-343 -77v-110q3 1 12 2q41 6 60 6q81 0 132.5 -48t51.5 -124q0 -180 -246 -180
q-103 0 -190.5 34.5t-87.5 77.5q0 37 43 37q-4 0 80.5 -25.5t117.5 -25.5q92 0 92 84q0 76 -100 76q-12 0 -19 -1q-11 -2 -32 -5v205q-208 27 -335.5 159t-127.5 322q0 209 149 348t379 139q157 0 295 -78q24 78 103 78q100 0 100 -145z" />
    <glyph glyph-name="eacute" unicode="&#xe9;" 
d="M987 403h-645q50 -221 299 -221q100 0 246 61l145 60q84 0 84 -98q0 -95 -140.5 -162.5t-342.5 -67.5q-240 0 -392.5 136.5t-152.5 349.5q0 212 151.5 348.5t393.5 136.5q215 0 357.5 -126t142.5 -314q0 -61 -29 -82t-117 -21zM342 559h539q-34 195 -271 195
q-215 0 -268 -195zM976 1196l-522 -186l-35 77l478 279q7 4 16 4q30 0 45 -31l43 -90q2 -13 2 -12q0 -31 -27 -41z" />
    <glyph glyph-name="egrave" unicode="&#xe8;" 
d="M987 403h-645q50 -221 299 -221q100 0 246 61l145 60q84 0 84 -98q0 -95 -140.5 -162.5t-342.5 -67.5q-240 0 -392.5 136.5t-152.5 349.5q0 212 151.5 348.5t393.5 136.5q215 0 357.5 -126t142.5 -314q0 -61 -29 -82t-117 -21zM342 559h539q-34 195 -271 195
q-215 0 -268 -195zM372 1366l477 -279l-34 -77l-523 186q-26 9 -26 41l2 12l2 4l41 86q15 31 45 31q9 0 16 -4z" />
    <glyph glyph-name="ecircumflex" unicode="&#xea;" 
d="M987 403h-645q50 -221 299 -221q100 0 246 61l145 60q84 0 84 -98q0 -95 -140.5 -162.5t-342.5 -67.5q-240 0 -392.5 136.5t-152.5 349.5q0 212 151.5 348.5t393.5 136.5q215 0 357.5 -126t142.5 -314q0 -61 -29 -82t-117 -21zM342 559h539q-34 195 -271 195
q-215 0 -268 -195zM925 1042l-4 2l-287 134l-286 -134q-14 -4 -17 -4q-47 0 -47 50q0 14 12 26l277 219q24 19 61 19q38 0 62 -19l276 -219q13 -10 13 -24q0 -18 -15 -35t-32 -17q-3 0 -13 2z" />
    <glyph glyph-name="edieresis" unicode="&#xeb;" 
d="M265 1290h700v-134h-700v134zM987 403h-645q50 -221 299 -221q100 0 246 61l145 60q84 0 84 -98q0 -95 -140.5 -162.5t-342.5 -67.5q-240 0 -392.5 136.5t-152.5 349.5q0 212 151.5 348.5t393.5 136.5q215 0 357.5 -126t142.5 -314q0 -61 -29 -82t-117 -21zM342 559h539
q-34 195 -271 195q-215 0 -268 -195z" />
    <glyph glyph-name="iacute" unicode="&#xed;" 
d="M754 881v-662h215q127 0 127 -108q0 -111 -127 -111h-676q-127 0 -127 111q0 108 127 108h215v486h-113q-125 0 -125 110q0 109 125 109h301q58 0 58 -43zM905 1196l-522 -186l-35 77l478 279q7 4 16 4q30 0 45 -31l43 -90q2 -13 2 -12q0 -31 -27 -41z" />
    <glyph glyph-name="igrave" unicode="&#xec;" 
d="M754 881v-662h215q127 0 127 -108q0 -111 -127 -111h-676q-127 0 -127 111q0 108 127 108h215v486h-113q-125 0 -125 110q0 109 125 109h301q58 0 58 -43zM301 1366l477 -279l-34 -77l-523 186q-26 9 -26 41l2 12l2 4l41 86q15 31 45 31q9 0 16 -4z" />
    <glyph glyph-name="icircumflex" unicode="&#xee;" 
d="M754 881v-662h215q127 0 127 -108q0 -111 -127 -111h-676q-127 0 -127 111q0 108 127 108h215v486h-113q-125 0 -125 110q0 109 125 109h301q58 0 58 -43zM854 1042l-4 2l-287 134l-286 -134q-14 -4 -17 -4q-47 0 -47 50q0 14 12 26l277 219q24 19 61 19q38 0 62 -19
l276 -219q13 -10 13 -24q0 -18 -15 -35t-32 -17q-3 0 -13 2z" />
    <glyph glyph-name="idieresis" unicode="&#xef;" 
d="M265 1290h700v-134h-700v134zM754 881v-662h215q127 0 127 -108q0 -111 -127 -111h-676q-127 0 -127 111q0 108 127 108h215v486h-113q-125 0 -125 110q0 109 125 109h301q58 0 58 -43z" />
    <glyph glyph-name="ntilde" unicode="&#xf1;" 
d="M1034 555v-334h13q112 0 112 -110q0 -111 -125 -111h-246q-126 0 -126 111q0 110 114 110h12v289q0 122 -33 171.5t-112 49.5q-83 0 -135.5 -62t-52.5 -159v-289h12q113 0 113 -110q0 -111 -125 -111h-248q-125 0 -125 111q0 110 113 110h12v484h-17q-110 0 -110 108
q0 111 127 111h170q57 0 57 -43v-78q93 145 283 145q317 0 317 -393zM627 1116l-113 31q-44 12 -84 12q-27 0 -83.5 -33.5t-57.5 -33.5q-39 0 -39 41q0 62 71.5 114.5t159.5 52.5q70 0 121 -14l113 -31q51 -14 84 -14q27 0 83 35l56 35q41 0 41 -43q0 -64 -71 -116t-160 -52
q-63 0 -121 16z" />
    <glyph glyph-name="oacute" unicode="&#xf3;" 
d="M614 735q-117 0 -192.5 -76t-75.5 -196q0 -119 76 -198t192 -79q117 0 193 77.5t76 199.5q0 120 -75.5 196t-193.5 76zM614 946q243 0 394 -135.5t151 -349.5q0 -216 -151.5 -351t-393.5 -135q-241 0 -392.5 135.5t-151.5 350.5q0 212 151.5 348.5t392.5 136.5zM956 1196
l-522 -186l-35 77l478 279q7 4 16 4q30 0 45 -31l43 -90q2 -13 2 -12q0 -31 -27 -41z" />
    <glyph glyph-name="ograve" unicode="&#xf2;" 
d="M614 735q-117 0 -192.5 -76t-75.5 -196q0 -119 76 -198t192 -79q117 0 193 77.5t76 199.5q0 120 -75.5 196t-193.5 76zM614 946q243 0 394 -135.5t151 -349.5q0 -216 -151.5 -351t-393.5 -135q-241 0 -392.5 135.5t-151.5 350.5q0 212 151.5 348.5t392.5 136.5zM352 1366
l477 -279l-34 -77l-523 186q-26 9 -26 41l2 12l2 4l41 86q15 31 45 31q9 0 16 -4z" />
    <glyph glyph-name="ocircumflex" unicode="&#xf4;" 
d="M614 735q-117 0 -192.5 -76t-75.5 -196q0 -119 76 -198t192 -79q117 0 193 77.5t76 199.5q0 120 -75.5 196t-193.5 76zM614 946q243 0 394 -135.5t151 -349.5q0 -216 -151.5 -351t-393.5 -135q-241 0 -392.5 135.5t-151.5 350.5q0 212 151.5 348.5t392.5 136.5zM905 1042
l-4 2l-287 134l-286 -134q-14 -4 -17 -4q-47 0 -47 50q0 14 12 26l277 219q24 19 61 19q38 0 62 -19l276 -219q13 -10 13 -24q0 -18 -15 -35t-32 -17q-3 0 -13 2z" />
    <glyph glyph-name="odieresis" unicode="&#xf6;" 
d="M265 1290h700v-134h-700v134zM614 735q-117 0 -192.5 -76t-75.5 -196q0 -119 76 -198t192 -79q117 0 193 77.5t76 199.5q0 120 -75.5 196t-193.5 76zM614 946q243 0 394 -135.5t151 -349.5q0 -216 -151.5 -351t-393.5 -135q-241 0 -392.5 135.5t-151.5 350.5
q0 212 151.5 348.5t392.5 136.5z" />
    <glyph glyph-name="otilde" unicode="&#xf5;" 
d="M614 735q-117 0 -192.5 -76t-75.5 -196q0 -119 76 -198t192 -79q117 0 193 77.5t76 199.5q0 120 -75.5 196t-193.5 76zM614 946q243 0 394 -135.5t151 -349.5q0 -216 -151.5 -351t-393.5 -135q-241 0 -392.5 135.5t-151.5 350.5q0 212 151.5 348.5t392.5 136.5zM627 1116
l-113 31q-44 12 -84 12q-27 0 -83.5 -33.5t-57.5 -33.5q-39 0 -39 41q0 62 71.5 114.5t159.5 52.5q70 0 121 -14l113 -31q51 -14 84 -14q27 0 83 35l56 35q41 0 41 -43q0 -64 -71 -116t-160 -52q-63 0 -121 16z" />
    <glyph glyph-name="uacute" unicode="&#xfa;" 
d="M772 416v289h-16q-109 0 -109 110q0 109 125 109h189q57 0 57 -43v-662h16q111 0 111 -108q0 -111 -127 -111h-168q-59 0 -59 45v76q-96 -144 -281 -144q-317 0 -317 394v334h-17q-110 0 -110 110q0 109 127 109h188q55 0 55 -43v-465q0 -123 34 -173t112 -50
q83 0 136.5 62t53.5 161zM895 1196l-522 -186l-35 77l478 279q7 4 16 4q30 0 45 -31l43 -90q2 -13 2 -12q0 -31 -27 -41z" />
    <glyph glyph-name="ugrave" unicode="&#xf9;" 
d="M772 416v289h-16q-109 0 -109 110q0 109 125 109h189q57 0 57 -43v-662h16q111 0 111 -108q0 -111 -127 -111h-168q-59 0 -59 45v76q-96 -144 -281 -144q-317 0 -317 394v334h-17q-110 0 -110 110q0 109 127 109h188q55 0 55 -43v-465q0 -123 34 -173t112 -50
q83 0 136.5 62t53.5 161zM291 1366l477 -279l-34 -77l-523 186q-26 9 -26 41l2 12l2 4l41 86q15 31 45 31q9 0 16 -4z" />
    <glyph glyph-name="ucircumflex" unicode="&#xfb;" 
d="M772 416v289h-16q-109 0 -109 110q0 109 125 109h189q57 0 57 -43v-662h16q111 0 111 -108q0 -111 -127 -111h-168q-59 0 -59 45v76q-96 -144 -281 -144q-317 0 -317 394v334h-17q-110 0 -110 110q0 109 127 109h188q55 0 55 -43v-465q0 -123 34 -173t112 -50
q83 0 136.5 62t53.5 161zM844 1042l-4 2l-287 134l-286 -134q-14 -4 -17 -4q-47 0 -47 50q0 14 12 26l277 219q24 19 61 19q38 0 62 -19l276 -219q13 -10 13 -24q0 -18 -15 -35t-32 -17q-3 0 -13 2z" />
    <glyph glyph-name="udieresis" unicode="&#xfc;" 
d="M190 1290h775v-134h-775v134zM772 416v289h-16q-109 0 -109 110q0 109 125 109h189q57 0 57 -43v-662h16q111 0 111 -108q0 -111 -127 -111h-168q-59 0 -59 45v76q-96 -144 -281 -144q-317 0 -317 394v334h-17q-110 0 -110 110q0 109 127 109h188q55 0 55 -43v-465
q0 -123 34 -173t112 -50q83 0 136.5 62t53.5 161z" />
    <glyph glyph-name="dagger" unicode="&#x2020;" 
d="M735 1128v-204h187q24 0 42.5 -30t18.5 -73t-18.5 -73.5t-42.5 -30.5h-187v-654q0 -92 -114 -92q-52 0 -86.5 25.5t-34.5 66.5v654h-193q-25 0 -43 29t-18 73q0 42 19 73.5t42 31.5h193v204q0 91 114 91q121 0 121 -91z" />
    <glyph glyph-name="degree" unicode="&#xb0;" horiz-adv-x="819" 
d="M236 1038q0 -73 50.5 -123.5t123.5 -50.5q71 0 122.5 51t51.5 123q0 75 -51 124.5t-123 49.5q-71 0 -122.5 -51t-51.5 -123zM88 1038q0 134 94 228t228 94t227.5 -93.5t93.5 -228.5t-93 -228t-228 -93q-136 0 -229 93t-93 228z" />
    <glyph glyph-name="cent" unicode="&#xa2;" 
d="M737 1268v-4l-16 -207q76 -14 153 -56q21 70 91 70q90 0 90 -131v-145q0 -107 -90 -107q-61 0 -103 74q-68 119 -235 119q-103 0 -170.5 -69.5t-67.5 -174.5q0 -110 69 -177t185 -67q84 0 210 58l126 57q76 0 76 -90q0 -76 -99.5 -133t-265.5 -74l-18 -221
q-5 -58 -80 -58q-86 0 -86 54v6l18 221q-173 29 -277 145t-104 279q0 169 113 287t299 141l16 201q5 57 80 57q86 0 86 -55z" />
    <glyph glyph-name="sterling" unicode="&#xa3;" 
d="M543 705h321q39 0 39 -58v-72q0 -45 -35 -45h-286q18 -79 19 -86q5 -35 5 -51q0 -66 -33 -155q62 -3 130 -14l71 -11q23 0 97 29.5t77 29.5q34 0 66.5 -40.5t32.5 -81.5q0 -67 -76.5 -116.5t-179.5 -49.5q-37 0 -154 23q-112 22 -150 22q-63 0 -192 -58q-27 0 -54.5 42.5
t-27.5 80.5q0 23 47 53l41 27q70 49 70 148q0 81 -39 208h-131q-39 0 -39 58v71q0 46 35 46h86q-58 152 -58 258q0 243 229 310q72 21 169 21q154 0 245 -48t97 -134l6 -94q6 -88 -111 -88q-47 0 -74 69q-1 5 -8 21q-38 90 -139 90q-158 0 -158 -154q0 -41 62 -251z" />
    <glyph glyph-name="section" unicode="&#xa7;" 
d="M346 768q-47 -26 -47 -68q0 -73 137 -165l307 -207q89 -60 119 -131q58 22 58 71q0 72 -140 166l-305 205q-81 54 -129 129zM840 922v102h-201q-83 0 -115 -18t-32 -64q0 -63 106 -135l309 -209q197 -133 197 -299q0 -89 -47 -150t-125 -73l5 -40q1 -8 1 -28
q0 -73 -51.5 -132t-130.5 -79q-47 -12 -144 -12h-348q-67 0 -67 55v209q0 76 86 76q84 0 84 -76v-102h225q84 0 115.5 18t31.5 64q0 63 -106 135l-307 209q-197 134 -197 299q0 183 170 227q0 8 -3 30q-1 7 -1 36q0 221 326 221h321q68 0 68 -56v-208q0 -76 -84 -76
q-86 0 -86 76z" />
    <glyph glyph-name="bullet" unicode="&#x2022;" 
d="M455 684q0 64 47 113t112 49q67 0 113.5 -48t46.5 -114t-47 -113t-113 -47q-65 0 -112 47t-47 113z" />
    <glyph glyph-name="paragraph" unicode="&#xb6;" 
d="M825 1067h-149v-983q0 -84 -70 -84q-28 0 -47.5 25.5t-19.5 58.5v440q-171 3 -272 93t-101 237q0 150 101 241t272 91h473q80 0 80 -60q0 -59 -80 -59h-51v-983q0 -84 -68 -84q-29 0 -48.5 25.5t-19.5 58.5v983z" />
    <glyph glyph-name="germandbls" unicode="&#xdf;" 
d="M842 772q291 -58 291 -379q0 -198 -107.5 -308t-300.5 -110q-182 0 -182 119q0 94 112 94q4 0 17 -1t24 -1q174 0 174 228q0 217 -170 250l-33 6q-118 19 -118 86q0 71 96 84q111 15 111 116q0 152 -140 152q-95 0 -129 -57t-34 -213v-795q0 -43 -58 -43h-245
q-127 0 -127 111q0 108 127 108h57v680q0 218 98 314t320 96q187 0 289 -78.5t102 -220.5q0 -181 -174 -238z" />
    <glyph glyph-name="registered" unicode="&#xae;" 
d="M618 899h-92v-156h74q121 0 121 78t-103 78zM750 668q11 -6 26 -29l4 -8l90 -142h15q65 0 65 -59q0 -61 -67 -61h-68q-37 0 -57 30l-2 2l-133 209q-15 23 -39 23h-52v-144h11q59 0 59 -59q0 -61 -72 -61h-139q-72 0 -72 61q0 59 62 59h10v406h-10q-62 0 -62 61
q0 60 72 60h250q236 0 236 -178q0 -124 -127 -170zM104 680q0 -211 150 -362.5t360 -151.5q211 0 359.5 151.5t148.5 362.5t-149.5 362.5t-358.5 151.5t-359.5 -151.5t-150.5 -362.5zM2 680q0 253 179.5 432.5t432.5 179.5q252 0 432.5 -180t180.5 -432t-180.5 -432
t-432.5 -180q-254 0 -433 179t-179 433z" />
    <glyph glyph-name="copyright" unicode="&#xa9;" 
d="M772 997q21 29 53 29q52 0 52 -65v-140q0 -65 -58 -65q-45 0 -59 53q-27 100 -135 100q-176 0 -176 -229t178 -229q37 0 129.5 39.5t89.5 39.5q51 0 51 -65q0 -52 -89 -95.5t-192 -43.5q-145 0 -237 98.5t-92 255.5q0 153 91.5 253.5t233.5 100.5q83 0 160 -37zM104 680
q0 -211 150 -362.5t360 -151.5q211 0 359.5 151.5t148.5 362.5t-149.5 362.5t-358.5 151.5t-359.5 -151.5t-150.5 -362.5zM2 680q0 253 179.5 432.5t432.5 179.5q252 0 432.5 -180t180.5 -432t-180.5 -432t-432.5 -180q-254 0 -433 179t-179 433z" />
    <glyph glyph-name="trademark" unicode="&#x2122;" 
d="M737 674h-102q-60 0 -60 57t52 57l12 306q-49 0 -49 57q0 55 39 55h104q44 0 60 -47l73 -215l72 215q16 47 61 47h105q39 0 39 -55q0 -57 -49 -57l12 -306h10q39 0 39 -57t-59 -57h-121q-47 0 -47 57t61 57h6l-6 259l-65 -203q-14 -43 -58 -43q-43 0 -57 43l-66 203
l-6 -259h8q52 0 52 -57t-60 -57zM557 1153v-2l6 -156q2 -53 -53 -53q-52 0 -55 59l-4 93h-70v-306h84q41 0 41 -57t-60 -57h-266q-59 0 -59 57t43 57h82v306h-70l-2 -93q-1 -59 -55 -59q-53 0 -53 51v8l4 150q1 40 12 49q8 6 39 6h387q49 0 49 -53z" />
    <glyph glyph-name="acute" unicode="&#xb4;" 
d="M956 1196l-522 -186l-35 77l478 279q7 4 16 4q30 0 45 -31l43 -90q2 -13 2 -12q0 -31 -27 -41z" />
    <glyph glyph-name="dieresis" unicode="&#xa8;" 
d="M864 1319q51 0 88 -37t37 -90q0 -54 -36 -90.5t-89 -36.5q-54 0 -91.5 36.5t-37.5 90.5q0 49 39.5 88t89.5 39zM369 1319q51 0 88 -37t37 -90q0 -54 -36 -90.5t-89 -36.5q-54 0 -91.5 36.5t-37.5 90.5q0 49 39 88t90 39z" />
    <glyph glyph-name="AE" unicode="&#xc6;" 
d="M1065 870v105h-299v-273h82v13q0 92 76 92q80 0 80 -105v-172q0 -104 -78 -104t-78 88v18h-82v-319h299v119q0 125 92 125q90 0 90 -125v-242q0 -55 -18 -72.5t-70 -17.5h-610q-81 0 -109 22.5t-28 88.5q0 108 106 108h39v160h-233l-99 -342q-11 -37 -47 -37h-117
q-79 0 -107 22.5t-28 88.5q0 108 107 108h37l227 746h-39q-104 0 -104 110q0 69 28.5 90t114.5 21h862q51 0 69.5 -18t18.5 -74v-263q0 -37 -25.5 -62.5t-64.5 -25.5q-92 0 -92 127zM557 551v424h-61l-123 -424h184z" />
    <glyph glyph-name="Oslash" unicode="&#xd8;" 
d="M844 838l-359 -600q65 -39 125 -39q132 0 206.5 104t74.5 291q0 147 -47 244zM379 358l358 596q-72 33 -129 33q-124 0 -197 -106t-73 -287q0 -134 41 -236zM1061 1194l-74 -119q191 -188 191 -481q0 -273 -158.5 -449t-405.5 -176q-141 0 -254 60l-75 -119
q-28 -45 -60 -45t-61 23t-29 49q0 7 3 15q1 3 7 17l93 148q-189 195 -189 477q0 274 157.5 449.5t407.5 175.5q125 0 250 -58l58 94q28 45 59 45q34 0 62 -22t28 -51q0 -17 -10 -33z" />
    <glyph glyph-name="plusminus" unicode="&#xb1;" horiz-adv-x="1124" 
d="M944 696h-278v-250q0 -110 -105 -110q-102 0 -102 110v250h-277q-46 0 -78 29.5t-32 75.5q0 104 110 104h277v252q0 111 102 111q46 0 75.5 -31.5t29.5 -79.5v-252h278q111 0 111 -104q0 -48 -31.5 -76.5t-79.5 -28.5zM944 61h-762q-47 0 -78.5 28.5t-31.5 74.5
q0 104 110 104h762q111 0 111 -102q0 -48 -31.5 -76.5t-79.5 -28.5z" />
    <glyph glyph-name="yen" unicode="&#xa5;" 
d="M453 1040h-4l182 -395l180 395h-4q-90 0 -90 111q0 109 108 109h193q125 0 125 -109q0 -111 -105 -111h-16l-59 -127h104q76 0 76 -75q0 -76 -76 -76h-180l-72 -139h252q76 0 76 -76t-76 -76h-326v-250h140q127 0 127 -108q0 -113 -127 -113h-519q-124 0 -124 111
q0 110 124 110h140v250h-342q-74 0 -74 76t74 76h250l-68 139h-182q-74 0 -74 76q0 75 74 75h104l-55 127h-16q-107 0 -107 111q0 109 123 109h229q109 0 109 -109q0 -111 -94 -111z" />
    <glyph glyph-name="mu" unicode="&#xb5;" horiz-adv-x="1180" 
d="M1077 780l-125 -577h41q86 0 86 -92q0 -111 -129 -111h-135q-106 0 -106 92q0 17 1 22q0 18 1 23q-100 -157 -250 -157q-90 0 -139 61l-66 -324q-24 -116 -121 -116q-108 0 -108 100q0 18 6 45l215 977h-35q-36 0 -62 26.5t-26 65.5q0 113 131 113h133q115 0 109 -97
l-2 -34q-1 -4 -2 -11l-103 -448q-5 -23 -7 -39q-3 -28 -3 -37q0 -88 106 -88q223 0 295 318l72 317q16 71 47 97q26 22 78 22q104 0 104 -101q0 -19 -6 -47z" />
    <glyph glyph-name="ordfeminine" unicode="&#xaa;" 
d="M264 422h697q38 0 38 -31v-59q0 -37 -38 -37h-697q-35 0 -35 37v59q0 31 35 31zM750 743v123q-92 19 -134 19q-190 0 -190 -115q0 -92 125 -92q101 0 199 65zM944 1008v-295h14q86 0 86 -88t-102 -88h-76q-64 0 -90 69q-139 -90 -291 -90q-128 0 -202 65t-74 177
q0 119 95.5 185.5t268.5 66.5q66 0 177 -19v17q0 145 -138 145q-26 0 -133.5 -39t-122.5 -39q-84 0 -84 82q0 65 95 102t258 37q173 0 246 -66t73 -222z" />
    <glyph glyph-name="ordmasculine" unicode="&#xba;" 
d="M264 422h697q38 0 38 -31v-59q0 -37 -38 -37h-697q-35 0 -35 37v59q0 31 35 31zM614 686q93 0 153 61.5t60 157.5q0 97 -59 159t-154 62q-92 0 -153.5 -62.5t-61.5 -158.5q0 -94 61.5 -156.5t153.5 -62.5zM1051 905q0 -171 -121 -279t-316 -108q-191 0 -313.5 109.5
t-122.5 277.5q0 170 121.5 279.5t314.5 109.5q194 0 315.5 -108.5t121.5 -280.5z" />
    <glyph glyph-name="ae" unicode="&#xe6;" 
d="M537 256v147h-156q-139 0 -139 -110q0 -119 114 -119q96 0 181 82zM768 559h227q-16 195 -114 195t-113 -195zM647 825q95 123 248 123q147 0 239.5 -124.5t92.5 -321.5q0 -59 -20 -79t-77 -20h-362q1 -217 156 -217q45 0 137.5 53.5t85.5 53.5q29 0 54.5 -30.5
t25.5 -61.5q0 -86 -102.5 -156t-229.5 -70q-173 0 -266 152q-132 -152 -346 -152q-128 0 -202.5 79.5t-74.5 213.5q0 291 359 291h172v6q0 88 -40.5 138.5t-107.5 50.5q-21 0 -120 -36t-115 -36q-38 0 -62 25.5t-24 62.5q0 76 89 127t224 51q165 0 266 -123z" />
    <glyph glyph-name="oslash" unicode="&#xf8;" 
d="M817 647l-305 -440q39 -19 100 -19q118 0 194.5 76.5t76.5 198.5q0 105 -66 184zM397 297l297 428q-37 12 -78 12q-117 0 -193.5 -77.5t-76.5 -196.5q0 -91 51 -166zM1024 954l-68 -104q203 -137 203 -389q0 -216 -151.5 -351t-393.5 -135q-134 0 -239 45l-101 -147
q-17 -25 -49 -25q-30 0 -52.5 25.5t-22.5 58.5q2 11 6 17l94 139q-180 153 -180 373q0 213 152 349t392 136q125 0 213 -35l80 121q17 25 47 25t53 -23t23 -55q0 -16 -6 -25z" />
    <glyph glyph-name="questiondown" unicode="&#xbf;" 
d="M600 702v78q0 88 111 88q110 0 110 -86v-59q0 -73 -24.5 -110.5t-94.5 -75.5l-67 -35q-148 -73 -148 -172q0 -72 49 -115t132 -43q79 0 109.5 15t41.5 61q13 57 37 76q20 16 68 16q84 0 84 -96v-127q0 -56 -112.5 -93.5t-272.5 -37.5q-185 0 -288.5 96t-103.5 270
q0 119 97.5 212.5t271.5 137.5zM709 1253q85 0 139.5 -43.5t54.5 -115.5q0 -70 -55 -114t-139 -44q-86 0 -141.5 43.5t-55.5 114.5q0 70 55.5 114.5t141.5 44.5z" />
    <glyph glyph-name="exclamdown" unicode="&#xa1;" 
d="M709 762l36 -660q7 -125 -129 -125q-133 0 -133 125v11l39 649q5 76 94 76t93 -76zM616 1253q89 0 142 -46.5t53 -121.5q0 -72 -55.5 -118.5t-139.5 -46.5q-88 0 -143 46t-55 119q0 76 53.5 122t144.5 46z" />
    <glyph glyph-name="logicalnot" unicode="&#xac;" 
d="M950 430v305h-772q-108 0 -108 101q0 44 31 73t77 29h893q88 0 88 -70v-438q0 -108 -108 -108q-101 0 -101 108z" />
    <glyph glyph-name="florin" unicode="&#x192;" 
d="M795 934l-15 -119h166q55 0 55 -70q0 -96 -83 -96h-158l-74 -581q-24 -188 -118 -270.5t-279 -82.5q-209 0 -209 123q0 99 104 99q7 0 45 -2l50 -3q76 0 109.5 31t43.5 113l70 573h-150q-53 0 -53 70q0 96 84 96h137l21 127q32 193 121.5 272.5t277.5 79.5
q207 0 207 -127q0 -96 -105 -94q-32 1 -62.5 2.5t-31.5 1.5q-77 0 -110 -31t-43 -112z" />
    <glyph glyph-name="guillemotleft" unicode="&#xab;" 
d="M930 729l-127 -272l127 -271q6 -13 6 -36q0 -30 -25 -53t-57 -23q-45 0 -63 35l-158 307q-15 29 -15 45q0 27 15 49l158 297q18 33 63 33q33 0 57.5 -22t24.5 -54q0 -22 -6 -35zM602 729l-127 -272l127 -271q6 -13 6 -36q0 -31 -24.5 -53.5t-57.5 -22.5q-45 0 -63 35
l-158 307q-14 27 -14 45q0 23 14 49l158 297q18 33 63 33q36 0 59 -22.5t23 -53.5q0 -22 -6 -35z" />
    <glyph glyph-name="guillemotright" unicode="&#xbb;" 
d="M623 186l127 271l-127 272q-9 15 -9 35q0 31 25.5 53.5t58.5 22.5q47 0 64 -33l158 -307q14 -27 14 -47q0 -14 -14 -50l-158 -294q-19 -35 -64 -35q-33 0 -58.5 22.5t-25.5 53.5q0 21 9 36zM295 186l127 271l-127 272q-8 17 -8 35q0 32 25 54t59 22q44 0 61 -33l160 -307
q14 -27 14 -47q0 -24 -14 -50l-160 -294q-19 -35 -61 -35q-34 0 -59 22t-25 54q0 19 8 36z" />
    <glyph glyph-name="ellipsis" unicode="&#x2026;" 
d="M877 123q0 61 44 105t105 44q62 0 105 -43t43 -106q0 -62 -43 -105t-105 -43q-61 0 -105 44t-44 104zM53 123q0 61 44 105t106 44q61 0 104 -43t43 -106q0 -62 -43 -105t-104 -43q-62 0 -106 44t-44 104zM467 123q0 63 43 106t104 43q62 0 105 -43t43 -106
q0 -62 -43 -105t-105 -43q-61 0 -104 43t-43 105z" />
    <glyph glyph-name="nonbreakingspace" unicode="&#xa0;" 
 />
    <glyph glyph-name="Agrave" unicode="&#xc0;" 
d="M801 1090v-3l317 -868h17q110 0 110 -108q0 -111 -127 -111h-301q-127 0 -127 111q0 108 127 108h35l-41 117h-432l-43 -117h35q127 0 127 -108q0 -111 -127 -111h-258q-127 0 -127 111q0 108 110 108h17l268 746h-80q-127 0 -127 110q0 111 127 111h375q89 0 125 -96z
M449 543h290l-145 422zM301 1636l477 -279l-34 -77l-523 186q-26 9 -26 41l2 12l2 4l41 86q15 31 45 31q9 0 16 -4z" />
    <glyph glyph-name="Atilde" unicode="&#xc3;" 
d="M801 1090v-3l317 -868h17q110 0 110 -108q0 -111 -127 -111h-301q-127 0 -127 111q0 108 127 108h35l-41 117h-432l-43 -117h35q127 0 127 -108q0 -111 -127 -111h-258q-127 0 -127 111q0 108 110 108h17l268 746h-80q-127 0 -127 110q0 111 127 111h375q89 0 125 -96z
M449 543h290l-145 422zM576 1386l-113 31q-44 12 -84 12q-27 0 -83.5 -33.5t-57.5 -33.5q-39 0 -39 41q0 62 71.5 114.5t159.5 52.5q70 0 121 -14l113 -31q51 -14 84 -14q27 0 83 35l56 35q41 0 41 -43q0 -64 -71 -116t-160 -52q-63 0 -121 16z" />
    <glyph glyph-name="Otilde" unicode="&#xd5;" 
d="M614 987q-129 0 -202.5 -105.5t-73.5 -287.5q0 -183 73.5 -289t202.5 -106q130 0 203.5 106t73.5 289q0 187 -73 290t-204 103zM614 1219q247 0 405.5 -175.5t158.5 -449.5q0 -275 -158 -450t-406 -175q-244 0 -404.5 176.5t-160.5 448.5q0 274 157.5 449.5t407.5 175.5z
M627 1386l-113 31q-44 12 -84 12q-27 0 -83.5 -33.5t-57.5 -33.5q-39 0 -39 41q0 62 71.5 114.5t159.5 52.5q70 0 121 -14l113 -31q51 -14 84 -14q27 0 83 35l56 35q41 0 41 -43q0 -64 -71 -116t-160 -52q-63 0 -121 16z" />
    <glyph glyph-name="OE" unicode="&#x152;" 
d="M1057 870v105h-293v-273h80v17q0 88 76 88q77 0 77 -105v-172q0 -104 -75 -104q-78 0 -78 86v20h-80v-319h293v119q0 125 90 125t90 -125v-242q0 -55 -18 -72.5t-68 -17.5h-539q-224 0 -329 59q-271 153 -271 535q0 183 73.5 326t197.5 210q104 56 397 56h471
q52 0 69 -18t17 -74v-224q0 -127 -90 -127t-90 127zM557 217v758l-14 2h-23q-254 0 -254 -383q0 -180 64.5 -280.5t183.5 -100.5q10 0 43 4z" />
    <glyph glyph-name="oe" unicode="&#x153;" 
d="M768 559h227q-16 195 -114 195t-113 -195zM387 735q-66 0 -107.5 -76t-41.5 -196q0 -122 42 -199.5t107 -77.5q64 0 107 77t43 200q0 120 -42 196t-108 76zM629 797q93 149 266 149q149 0 240.5 -123.5t91.5 -320.5q0 -59 -20 -79t-77 -20h-362q1 -217 156 -217
q45 0 137.5 53.5t85.5 53.5q29 0 54.5 -30.5t25.5 -61.5q0 -86 -102.5 -156t-229.5 -70q-173 0 -266 152q-98 -152 -271 -152q-158 0 -257 135t-99 351q0 218 98.5 351.5t257.5 133.5q167 0 271 -149z" />
    <glyph glyph-name="endash" unicode="&#x2013;" 
d="M-2 557h1233q49 0 49 -49v-86q0 -21 -15 -38t-34 -17h-1233q-43 0 -43 55v86q0 49 43 49z" />
    <glyph glyph-name="emdash" unicode="&#x2014;" 
d="M-2 557h1233q49 0 49 -49v-86q0 -21 -15 -38t-34 -17h-1233q-43 0 -43 55v86q0 49 43 49z" />
    <glyph glyph-name="quotedblleft" unicode="&#x201c;" 
d="M899 1217l64 -23q28 -10 28 -33v-13q0 -5 -2 -7l-117 -424q-12 -45 -55 -45h-196q-29 0 -29 18q0 11 6 23l246 479q15 29 39 29q6 0 16 -4zM508 1217l61 -23q31 -12 31 -33q0 -6 -4 -20l-117 -424q-12 -45 -55 -45h-197q-28 0 -28 18q0 7 8 23l244 479q15 29 38 29
q6 -1 19 -4z" />
    <glyph glyph-name="quotedblright" unicode="&#x201d;" 
d="M793 1186h196q29 0 29 -19q0 -16 -6 -24l-246 -477q-15 -29 -39 -29q-9 0 -12 0.5t-4 1.5l-64 23q-29 10 -29 32q0 10 1 14l2 7l116 424q13 47 56 47zM401 1186h195q29 0 29 -19q0 -17 -7 -24l-243 -477q-15 -29 -41 -29q-9 0 -10 1q-6 0 -7 1l-63 23q-29 11 -29 32
q0 14 2 21l117 424q13 47 57 47z" />
    <glyph glyph-name="quoteleft" unicode="&#x2018;" 
d="M804 1645v-125q-192 -51 -192 -276q81 0 131 -46.5t50 -117.5q0 -70 -48.5 -117.5t-114.5 -47.5q-89 0 -147.5 75.5t-58.5 195.5q0 226 179 374q83 69 201 85z" />
    <glyph glyph-name="quoteright" unicode="&#x2019;" 
d="M424 915v125q192 51 192 276q-81 0 -131 46.5t-50 117.5q0 67 47.5 116t115.5 49q89 0 147.5 -75.5t58.5 -195.5q0 -226 -179 -374q-83 -69 -201 -85z" />
    <glyph glyph-name="divide" unicode="&#xf7;" horiz-adv-x="1124" 
d="M563 805q-57 0 -98 41t-41 98q0 59 41 100t98 41t99.5 -40.5t42.5 -100.5q0 -57 -42.5 -98t-99.5 -41zM117 733h895q92 0 92 -102q0 -103 -92 -103h-895q-94 0 -94 103q0 102 94 102zM563 176q-57 0 -98 41t-41 98t41 99.5t98 42.5q58 0 100 -40.5t42 -101.5
q0 -57 -42.5 -98t-99.5 -41z" />
    <glyph glyph-name="ydieresis" unicode="&#xff;" 
d="M804 1645v-125q-192 -51 -192 -276q81 0 131 -46.5t50 -117.5q0 -70 -48.5 -117.5t-114.5 -47.5q-89 0 -147.5 75.5t-58.5 195.5q0 226 179 374q83 69 201 85z" />
    <glyph glyph-name="Ydieresis" unicode="&#x178;" 
d="M481 965h-14l156 -326l149 326h-4q-92 0 -92 110q0 111 108 111h228q123 0 123 -111q0 -110 -107 -110h-16l-269 -500v-246h131q125 0 125 -108q0 -111 -127 -111h-518q-125 0 -125 111q0 108 125 108h131v217l-284 529h-17q-106 0 -106 110q0 111 123 111h262
q110 0 110 -111q0 -110 -92 -110zM864 1589q51 0 88 -37t37 -90q0 -54 -36 -90.5t-89 -36.5q-54 0 -91.5 36.5t-37.5 90.5q0 49 39.5 88t89.5 39zM369 1589q51 0 88 -37t37 -90q0 -54 -36 -90.5t-89 -36.5q-54 0 -91.5 36.5t-37.5 90.5q0 49 39 88t90 39z" />
    <glyph glyph-name="currency" unicode="&#xa4;" 
d="M387 885q0 -95 66.5 -162.5t160.5 -67.5q93 0 160.5 67.5t67.5 162.5t-67 162t-161 67q-93 0 -160 -67t-67 -162zM401 573l-180 -186l-102 105l182 182q-63 93 -63 211q0 120 63 213l-182 182l102 102l180 -184q95 66 213 66q120 0 211 -66l183 184l102 -102l-184 -182
q63 -93 63 -213q0 -118 -63 -211l184 -182l-102 -105l-183 186q-91 -67 -211 -67q-116 0 -213 67z" />
    <glyph glyph-name="guilsinglleft" unicode="&#x2039;" 
d="M768 729l-127 -272l127 -271q6 -13 6 -36q0 -31 -24.5 -53.5t-57.5 -22.5q-45 0 -63 35l-158 307q-14 27 -14 45q0 23 14 49l158 297q18 33 63 33q36 0 59 -22.5t23 -53.5q0 -22 -6 -35z" />
    <glyph glyph-name="guilsinglright" unicode="&#x203a;" 
d="M461 186l127 271l-127 272q-8 17 -8 35q0 32 25 54t59 22q44 0 61 -33l160 -307q14 -27 14 -47q0 -24 -14 -50l-160 -294q-19 -35 -61 -35q-34 0 -59 22t-25 54q0 19 8 36z" />
    <glyph glyph-name="daggerdbl" unicode="&#x2021;" 
d="M735 1128v-204h187q24 0 42.5 -30t18.5 -73t-18.5 -73.5t-42.5 -30.5h-187v-244h193q23 0 42 -30t19 -72q0 -44 -19 -74.5t-42 -30.5h-193v-205q0 -92 -114 -92q-52 0 -86.5 25.5t-34.5 66.5v205h-187q-25 0 -43 29t-18 72q0 41 19.5 73.5t41.5 32.5h187v244h-193
q-25 0 -43 29t-18 73q0 42 19 73.5t42 31.5h193v204q0 91 114 91q121 0 121 -91z" />
    <glyph glyph-name="periodcentered" unicode="&#x2219;" 
d="M614 834q86 0 144.5 -60t58.5 -143q0 -85 -59 -144t-144 -59q-84 0 -143 59t-59 144q0 82 59 142.5t143 60.5z" />
    <glyph glyph-name="quotesinglbase" unicode="&#x201a;" 
d="M575 223h197q29 0 29 -18q-1 -5 -8 -23l-244 -479q-14 -27 -39 -27q-8 0 -9 1q-6 0 -7 1l-64 23q-31 11 -31 33q0 6 4 20l117 424q12 45 55 45z" />
    <glyph glyph-name="quotedblbase" unicode="&#x201e;" 
d="M778 223h195q28 0 28 -18q0 -15 -6 -23l-243 -479q-14 -27 -39 -27q-10 0 -11 1q-6 0 -8 1l-63 23q-29 11 -29 33q0 13 2 20l117 424q12 45 57 45zM385 223h197q28 0 28 -18q0 -7 -8 -23l-244 -479q-9 -27 -39 -27q-13 0 -18 2l-63 23q-29 11 -29 33q0 11 4 20l115 424
q12 45 57 45z" />
    <glyph glyph-name="perthousand" unicode="&#x2030;" 
d="M1065 360q-59 0 -97 -33t-38 -87q0 -55 37.5 -88t97.5 -33q59 0 96 33t37 88q0 53 -37 86.5t-96 33.5zM434 360q-59 0 -97 -33t-38 -87q0 -55 37.5 -88t97.5 -33q59 0 96 33t37 88q0 53 -37 86.5t-96 33.5zM1065 512q126 0 209.5 -78t83.5 -194q0 -120 -82.5 -196.5
t-210.5 -76.5t-211.5 77.5t-83.5 195.5q0 116 84 194t211 78zM434 512q126 0 209.5 -78t83.5 -194q0 -120 -82.5 -196.5t-210.5 -76.5t-211.5 77.5t-83.5 195.5q0 116 84 194t211 78zM674 707l-672 -269q-15 -6 -27 -6q-25 0 -43 21.5t-18 50.5q0 37 41 53l672 266
q11 6 28 6q60 0 60 -67q0 -39 -41 -55zM203 1145q-61 0 -98 -34t-37 -89q0 -54 37 -87.5t98 -33.5q59 0 96 33t37 88t-37 89t-96 34zM203 1294q126 0 209.5 -78t83.5 -194q0 -119 -82.5 -195.5t-210.5 -76.5t-211.5 77t-83.5 195q0 116 84.5 194t210.5 78z" />
    <glyph glyph-name="Acircumflex" unicode="&#xc2;" 
d="M801 1090v-3l317 -868h17q110 0 110 -108q0 -111 -127 -111h-301q-127 0 -127 111q0 108 127 108h35l-41 117h-432l-43 -117h35q127 0 127 -108q0 -111 -127 -111h-258q-127 0 -127 111q0 108 110 108h17l268 746h-80q-127 0 -127 110q0 111 127 111h375q89 0 125 -96z
M449 543h290l-145 422zM854 1312l-4 2l-287 134l-286 -134q-14 -4 -17 -4q-47 0 -47 50q0 14 12 26l277 219q24 19 61 19q38 0 62 -19l276 -219q13 -10 13 -24q0 -18 -15 -35t-32 -17q-3 0 -13 2z" />
    <glyph glyph-name="Ecircumflex" unicode="&#xca;" 
d="M901 870v105h-465v-256h176v12q0 113 101 113q102 0 102 -90q0 -2 1 -12.5t1 -22.5v-207q0 -125 -102 -125q-103 0 -103 107v18h-176v-299h465v119q0 125 109 125q106 0 106 -125v-242q0 -54 -21 -72t-83 -18h-819q-123 0 -123 111q0 108 106 108h17v746h-17
q-106 0 -106 110q0 111 123 111h819q61 0 82.5 -18.5t21.5 -73.5v-224q0 -127 -106 -127q-109 0 -109 127zM934 1312l-4 2l-287 134l-286 -134q-14 -4 -17 -4q-47 0 -47 50q0 14 12 26l277 219q24 19 61 19q38 0 62 -19l276 -219q13 -10 13 -24q0 -18 -15 -35t-32 -17
q-3 0 -13 2z" />
    <glyph glyph-name="Aacute" unicode="&#xc1;" 
d="M801 1090v-3l317 -868h17q110 0 110 -108q0 -111 -127 -111h-301q-127 0 -127 111q0 108 127 108h35l-41 117h-432l-43 -117h35q127 0 127 -108q0 -111 -127 -111h-258q-127 0 -127 111q0 108 110 108h17l268 746h-80q-127 0 -127 110q0 111 127 111h375q89 0 125 -96z
M449 543h290l-145 422zM905 1466l-522 -186l-35 77l478 279q7 4 16 4q30 0 45 -31l43 -90q2 -13 2 -12q0 -31 -27 -41z" />
    <glyph glyph-name="Edieresis" unicode="&#xcb;" 
d="M200 1430h900v-134h-900v134zM901 870v105h-465v-256h176v12q0 113 101 113q102 0 102 -90q0 -2 1 -12.5t1 -22.5v-207q0 -125 -102 -125q-103 0 -103 107v18h-176v-299h465v119q0 125 109 125q106 0 106 -125v-242q0 -54 -21 -72t-83 -18h-819q-123 0 -123 111
q0 108 106 108h17v746h-17q-106 0 -106 110q0 111 123 111h819q61 0 82.5 -18.5t21.5 -73.5v-224q0 -127 -106 -127q-109 0 -109 127z" />
    <glyph glyph-name="Egrave" unicode="&#xc8;" 
d="M901 870v105h-465v-256h176v12q0 113 101 113q102 0 102 -90q0 -2 1 -12.5t1 -22.5v-207q0 -125 -102 -125q-103 0 -103 107v18h-176v-299h465v119q0 125 109 125q106 0 106 -125v-242q0 -54 -21 -72t-83 -18h-819q-123 0 -123 111q0 108 106 108h17v746h-17
q-106 0 -106 110q0 111 123 111h819q61 0 82.5 -18.5t21.5 -73.5v-224q0 -127 -106 -127q-109 0 -109 127zM381 1636l477 -279l-34 -77l-523 186q-26 9 -26 41l2 12l2 4l41 86q15 31 45 31q9 0 16 -4z" />
    <glyph glyph-name="Iacute" unicode="&#xcd;" 
d="M911 965h-168v-746h168q127 0 127 -108q0 -111 -127 -111h-594q-127 0 -127 111q0 108 127 108h168v746h-168q-127 0 -127 110q0 109 127 109h594q71 0 99 -24.5t28 -84.5q0 -110 -127 -110zM956 1466l-522 -186l-35 77l478 279q7 4 16 4q30 0 45 -31l43 -90q2 -13 2 -12
q0 -31 -27 -41z" />
    <glyph glyph-name="Icircumflex" unicode="&#xce;" 
d="M911 965h-168v-746h168q127 0 127 -108q0 -111 -127 -111h-594q-127 0 -127 111q0 108 127 108h168v746h-168q-127 0 -127 110q0 109 127 109h594q71 0 99 -24.5t28 -84.5q0 -110 -127 -110zM905 1312l-4 2l-287 134l-286 -134q-14 -4 -17 -4q-47 0 -47 50q0 14 12 26
l277 219q24 19 61 19q38 0 62 -19l276 -219q13 -10 13 -24q0 -18 -15 -35t-32 -17q-3 0 -13 2z" />
    <glyph glyph-name="Idieresis" unicode="&#xcf;" 
d="M220 1430h795v-134h-795v134zM911 965h-168v-746h168q127 0 127 -108q0 -111 -127 -111h-594q-127 0 -127 111q0 108 127 108h168v746h-168q-127 0 -127 110q0 109 127 109h594q71 0 99 -24.5t28 -84.5q0 -110 -127 -110z" />
    <glyph glyph-name="Igrave" unicode="&#xcc;" 
d="M911 965h-168v-746h168q127 0 127 -108q0 -111 -127 -111h-594q-127 0 -127 111q0 108 127 108h168v746h-168q-127 0 -127 110q0 109 127 109h594q71 0 99 -24.5t28 -84.5q0 -110 -127 -110zM352 1636l477 -279l-34 -77l-523 186q-26 9 -26 41l2 12l2 4l41 86
q15 31 45 31q9 0 16 -4z" />
    <glyph glyph-name="Oacute" unicode="&#xd3;" 
d="M614 987q-129 0 -202.5 -105.5t-73.5 -287.5q0 -183 73.5 -289t202.5 -106q130 0 203.5 106t73.5 289q0 187 -73 290t-204 103zM614 1219q247 0 405.5 -175.5t158.5 -449.5q0 -275 -158 -450t-406 -175q-244 0 -404.5 176.5t-160.5 448.5q0 274 157.5 449.5t407.5 175.5z
M956 1466l-522 -186l-35 77l478 279q7 4 16 4q30 0 45 -31l43 -90q2 -13 2 -12q0 -31 -27 -41z" />
    <glyph glyph-name="Ocircumflex" unicode="&#xd4;" 
d="M614 987q-129 0 -202.5 -105.5t-73.5 -287.5q0 -183 73.5 -289t202.5 -106q130 0 203.5 106t73.5 289q0 187 -73 290t-204 103zM614 1219q247 0 405.5 -175.5t158.5 -449.5q0 -275 -158 -450t-406 -175q-244 0 -404.5 176.5t-160.5 448.5q0 274 157.5 449.5t407.5 175.5z
M905 1312l-4 2l-287 134l-286 -134q-14 -4 -17 -4q-47 0 -47 50q0 14 12 26l277 219q24 19 61 19q38 0 62 -19l276 -219q13 -10 13 -24q0 -18 -15 -35t-32 -17q-3 0 -13 2z" />
    <glyph glyph-name="Ograve" unicode="&#xd2;" 
d="M614 987q-129 0 -202.5 -105.5t-73.5 -287.5q0 -183 73.5 -289t202.5 -106q130 0 203.5 106t73.5 289q0 187 -73 290t-204 103zM614 1219q247 0 405.5 -175.5t158.5 -449.5q0 -275 -158 -450t-406 -175q-244 0 -404.5 176.5t-160.5 448.5q0 274 157.5 449.5t407.5 175.5z
M352 1636l477 -279l-34 -77l-523 186q-26 9 -26 41l2 12l2 4l41 86q15 31 45 31q9 0 16 -4z" />
    <glyph glyph-name="Uacute" unicode="&#xda;" 
d="M424 965h-16v-523q0 -139 48.5 -197.5t161.5 -58.5q112 0 161.5 58.5t49.5 197.5v523h-16q-108 0 -108 110q0 111 124 111h250q125 0 125 -111q0 -110 -108 -110h-17v-519q0 -252 -109.5 -364.5t-348.5 -112.5q-251 0 -361 110.5t-110 366.5v519h-17q-110 0 -110 110
q0 111 127 111h258q127 0 127 -111q0 -110 -111 -110zM956 1466l-522 -186l-35 77l478 279q7 4 16 4q30 0 45 -31l43 -90q2 -13 2 -12q0 -31 -27 -41z" />
    <glyph glyph-name="Ucircumflex" unicode="&#xdb;" 
d="M424 965h-16v-523q0 -139 48.5 -197.5t161.5 -58.5q112 0 161.5 58.5t49.5 197.5v523h-16q-108 0 -108 110q0 111 124 111h250q125 0 125 -111q0 -110 -108 -110h-17v-519q0 -252 -109.5 -364.5t-348.5 -112.5q-251 0 -361 110.5t-110 366.5v519h-17q-110 0 -110 110
q0 111 127 111h258q127 0 127 -111q0 -110 -111 -110zM905 1312l-4 2l-287 134l-286 -134q-14 -4 -17 -4q-47 0 -47 50q0 14 12 26l277 219q24 19 61 19q38 0 62 -19l276 -219q13 -10 13 -24q0 -18 -15 -35t-32 -17q-3 0 -13 2z" />
    <glyph glyph-name="Ugrave" unicode="&#xd9;" 
d="M424 965h-16v-523q0 -139 48.5 -197.5t161.5 -58.5q112 0 161.5 58.5t49.5 197.5v523h-16q-108 0 -108 110q0 111 124 111h250q125 0 125 -111q0 -110 -108 -110h-17v-519q0 -252 -109.5 -364.5t-348.5 -112.5q-251 0 -361 110.5t-110 366.5v519h-17q-110 0 -110 110
q0 111 127 111h258q127 0 127 -111q0 -110 -111 -110zM352 1636l477 -279l-34 -77l-523 186q-26 9 -26 41l2 12l2 4l41 86q15 31 45 31q9 0 16 -4z" />
    <glyph glyph-name="circumflex" unicode="&#x2c6;" 
d="M905 1042l-4 2l-287 134l-286 -134q-14 -4 -17 -4q-47 0 -47 50q0 14 12 26l277 219q24 19 61 19q38 0 62 -19l276 -219q13 -10 13 -24q0 -18 -15 -35t-32 -17q-3 0 -13 2z" />
    <glyph glyph-name="tilde" unicode="&#x2dc;" 
d="M627 1116l-113 31q-44 12 -84 12q-27 0 -83.5 -33.5t-57.5 -33.5q-39 0 -39 41q0 62 71.5 114.5t159.5 52.5q70 0 121 -14l113 -31q51 -14 84 -14q27 0 83 35l56 35q41 0 41 -43q0 -64 -71 -116t-160 -52q-63 0 -121 16z" />
    <glyph glyph-name="macron" unicode="&#x2c9;" 
d="M297 1260h635q31 0 31 -39v-62q0 -39 -31 -39h-635q-31 0 -31 39v62q0 39 31 39z" />
    <glyph glyph-name="cedilla" unicode="&#xb8;" 
d="M551 -225v225h86v-133q3 1 12 2q41 6 60 6q81 0 132.5 -48t51.5 -124q0 -180 -246 -180q-102 0 -191 35t-89 77q0 37 45 37q-4 0 80.5 -25.5t117.5 -25.5q92 0 92 84q0 76 -100 76q-12 0 -19 -1q-11 -2 -32 -5z" />
    <glyph glyph-name="Scaron" unicode="&#x160;" 
d="M864 1163q27 56 92 56q56 0 72 -17q20 -20 21 -90l4 -203q2 -106 -103 -106q-72 0 -106 76q-1 6 -4 11l-4 7q-71 125 -209 125q-89 0 -145 -41.5t-56 -106.5q0 -93 254 -145l68 -14q189 -39 278 -128q86 -86 86 -235q0 -185 -124.5 -284t-358.5 -99q-173 0 -301 49
q-33 -49 -95 -49t-86 22q-27 24 -28 87l-4 246q-1 67 23.5 92.5t86.5 25.5q66 0 109 -94l16 -35q78 -153 279 -153q194 0 194 145q0 106 -231 162q-72 17 -109 27q-187 49 -265.5 125t-78.5 212q0 171 128.5 279.5t332.5 108.5q135 0 264 -56z" />
    <glyph glyph-name="scaron" unicode="&#x161;" 
d="M350 14q-55 -41 -110 -41q-78 0 -78 109v133q0 121 98 121q57 0 96 -57q15 -22 37 -46q101 -88 262 -88q72 0 115 28t43 73q0 82 -273 118l-38 5q-344 50 -344 284q0 295 393 295q135 0 274 -43q39 49 97 49q84 0 84 -102v-123q0 -90 -84 -90q-15 0 -139 71.5t-201 71.5
q-164 0 -164 -96q0 -72 180 -94l82 -10q100 -12 192 -41q78 -26 119 -57q84 -64 84 -195q0 -151 -112.5 -233.5t-315.5 -82.5q-148 0 -297 41z" />
    <glyph glyph-name="Eth" unicode="&#xd0;" 
d="M965 711l-476 -510h326l6 69q6 73 28 99t77 26q98 0 98 -125v-147q0 -82 -19.5 -102.5t-95.5 -20.5h-622q-121 0 -121 100q0 59 49 111l485 512h-307v-47q0 -127 -100 -127q-103 0 -103 127v127q0 81 19 101t96 20h590q123 0 123 -105q0 -51 -53 -108z" />
    <glyph glyph-name="LF" 
d="M244 186h18v813h-18q-105 0 -105 95q0 39 24 65.5t58 26.5h395q34 0 57 -26t23 -66q0 -95 -123 -95h-67v-92h149q418 0 418 -307q0 -321 -418 -321h-149v-93h139q35 0 59.5 -27t24.5 -67q0 -92 -121 -92h-387q-34 0 -58 26.5t-24 65.5q0 94 105 94zM631 719h-125v-252
h125q200 0 200 125q0 127 -200 127z" />
    <glyph glyph-name="DLE" 
d="M496 641h282l6 37q13 78 82 78q82 0 82 -88v-13q0 -6 -2 -8l-14 -96q-8 -57 -103 -57h-454q-78 0 -78 94q0 85 213 225q184 121 184 215q0 45 -30.5 73.5t-75.5 28.5q-33 0 -114 -33.5t-79 -33.5q-29 0 -52.5 23t-23.5 51q0 58 91.5 107.5t203.5 49.5q118 0 194.5 -71.5
t76.5 -180.5q0 -94 -75 -174q-83 -88 -314 -227z" />
    <glyph glyph-name="DC1" 
d="M766 911q158 -74 158 -204q0 -109 -100 -179.5t-257 -70.5q-135 0 -222 43t-87 106q0 68 76 68q-5 0 95 -32t142 -32q68 0 113 30t45 75q0 91 -127 104q-6 2 -20 2q-109 10 -109 74q0 29 19.5 51.5t44.5 22.5q155 0 155 90q0 86 -112 86q-27 0 -113 -36t-92 -36
q-64 0 -64 55q0 63 87.5 114.5t199.5 51.5q121 0 201 -60t80 -147q0 -93 -113 -176z" />
    <glyph glyph-name="DC2" 
d="M150 424l856 434q16 8 34 8q54 0 54 -55q0 -34 -37 -53l-858 -434q-18 -9 -33 -9q-53 0 -53 56q0 34 37 53zM379 1319v-506h39q70 0 95.5 -14.5t25.5 -55.5q0 -71 -70 -71h-354q-70 0 -70 71q0 41 23.5 55.5t95.5 14.5h49v432l-57 -4h-11q-77 0 -77 72q0 64 79 69l164 11
q68 5 68 -74zM985 66l-137 -101h239q80 0 80 -65q0 -76 -75 -76h-355q-71 0 -71 86q0 30 32 69q20 24 115 119l8 8q160 160 160 203q0 90 -86 90q-14 0 -89 -29.5t-85 -29.5q-55 0 -55 68q0 50 82 94.5t176 44.5q103 0 169 -60.5t66 -154.5q0 -138 -174 -266z" />
    <glyph glyph-name="DC3" 
d="M1040 455v-373h76q33 0 41 -13t8 -51q0 -71 -49 -71h-76v-80q0 -57 -88 -57q-73 0 -73 57v80h-308q-63 0 -63 82q0 81 37 127l282 348q27 33 43 33h25q4 0 14 -2l99 -17q32 -5 32 -63zM150 424l856 434q16 8 34 8q54 0 54 -55q0 -34 -37 -53l-858 -434q-18 -9 -33 -9
q-53 0 -53 56q0 34 37 53zM379 1319v-506h39q70 0 95.5 -14.5t25.5 -55.5q0 -71 -70 -71h-354q-70 0 -70 71q0 41 23.5 55.5t95.5 14.5h49v432l-57 -4h-11q-77 0 -77 72q0 64 79 69l164 11q68 5 68 -74zM893 387l-238 -305h238v305z" />
    <glyph glyph-name="DC4" 
d="M150 424l856 434q16 8 34 8q54 0 54 -55q0 -34 -37 -53l-858 -434q-18 -9 -33 -9q-53 0 -53 56q0 34 37 53zM893 387l-238 -305h238v305zM1040 455v-373h76q33 0 41 -13t8 -51q0 -71 -49 -71h-76v-80q0 -57 -88 -57q-73 0 -73 57v80h-308q-63 0 -63 82q0 81 37 127
l282 348q27 33 43 33h25q4 0 14 -2l99 -17q32 -5 32 -63zM487 1063q140 -63 140 -182q0 -100 -82.5 -162t-214.5 -62q-114 0 -184 28.5t-70 76.5q0 74 71 74q18 0 83.5 -21.5t91.5 -21.5q55 0 91 29.5t36 74.5q0 87 -101 98q-78 8 -78 60q0 42 72 59q78 19 78 86
q0 74 -76 74q-19 0 -92.5 -27.5t-79.5 -27.5q-63 0 -63 63q0 50 77 88.5t176 38.5q102 0 169 -54t67 -134q0 -108 -111 -158z" />
    <glyph glyph-name="RS" 
d="M911 870q24 78 103 78q100 0 100 -145v-164q0 -119 -102 -119q-66 0 -115 82q-79 133 -264 133q-119 0 -192.5 -76.5t-73.5 -195.5q0 -125 76.5 -201t207.5 -76q111 0 377 131q37 0 61.5 -28t24.5 -72q0 -96 -143.5 -169t-337.5 -73q-240 0 -392.5 136.5t-152.5 349.5
q0 209 149 348t379 139q157 0 295 -78z" />
    <glyph glyph-name="US" 
d="M776 31h58q-164 -137 -164 -264q0 -105 84 -105q58 0 110 70l35 -21q-82 -178 -237 -178q-77 0 -123.5 40.5t-46.5 111.5q0 176 284 346z" />
    <glyph glyph-name="DEL" 
d="M328 1354l286 -131l287 131q14 4 17 4q17 0 32 -16t15 -33t-13 -27l-276 -217q-27 -21 -62 -21q-34 0 -61 21l-277 217q-12 12 -12 27q0 18 14.5 33.5t32.5 15.5q4 -1 17 -4z" />
    <glyph glyph-name="notequal" unicode="&#x2260;" horiz-adv-x="1124" 
d="M961 961l-52 -60h103q92 0 92 -102q0 -103 -92 -103h-279l-112 -133h391q92 0 92 -100q0 -105 -92 -105h-553l-162 -196q-32 -39 -76 -39q-34 0 -69 32t-35 64q0 38 35 80l49 59h-84q-94 0 -94 103q0 102 94 102h254l112 133h-366q-94 0 -94 101q0 104 94 104h534
l164 197q32 39 74 39q37 0 70.5 -30.5t33.5 -64.5q0 -44 -32 -81z" />
    <glyph glyph-name="infinity" unicode="&#x221e;" horiz-adv-x="1460" 
d="M838 629q82 -205 178 -205q59 0 96 56.5t37 152.5q0 95 -33.5 152t-89.5 57q-116 0 -188 -213zM618 635q-47 116 -85.5 161.5t-90.5 45.5q-59 0 -97 -59t-38 -152q0 -95 34.5 -152t88.5 -57q109 0 188 213zM729 428q-109 -205 -285 -205q-136 0 -227.5 116.5t-91.5 291.5
q0 186 86.5 297.5t230.5 111.5q189 0 287 -209q89 207 285 207q145 0 232 -111t87 -296q0 -178 -90 -294t-227 -116q-162 0 -287 207z" />
    <glyph glyph-name="lessequal" unicode="&#x2264;" horiz-adv-x="1124" 
d="M942 946l-481 -158l481 -157q113 -37 113 -113q0 -94 -97 -94q-24 0 -67 14l-719 236q-102 33 -102 112q0 81 102 115l707 234q54 18 79 18q99 0 99 -92q0 -77 -115 -115zM178 313h760q109 0 109 -102q0 -43 -31.5 -71.5t-77.5 -28.5h-760q-108 0 -108 102q0 100 108 100
z" />
    <glyph glyph-name="greaterequal" unicode="&#x2265;" horiz-adv-x="1124" 
d="M182 631l482 157l-482 158q-114 37 -114 115q0 92 98 92q28 0 82 -18l704 -234q105 -35 105 -115q0 -77 -105 -112l-716 -236q-42 -14 -70 -14q-96 0 -96 94q0 77 112 113zM186 313h762q47 0 78 -28t31 -72t-31 -73t-78 -29h-762q-49 0 -78.5 28.5t-29.5 71.5
q0 102 108 102z" />
    <glyph glyph-name="partialdiff" unicode="&#x2202;" horiz-adv-x="1012" 
d="M715 559q-88 115 -217 115q-118 0 -199.5 -88t-81.5 -217q0 -89 48.5 -141t131.5 -52q228 0 318 383zM760 813q4 36 4 59q0 222 -172 222q-39 0 -145 -40t-111 -40q-41 0 -72 31t-31 71q0 66 122.5 126.5t262.5 60.5q181 0 285.5 -115.5t104.5 -315.5q0 -189 -50 -368.5
t-133 -296.5q-168 -236 -436 -236q-189 0 -306.5 107.5t-117.5 279.5q0 216 157.5 367.5t383.5 151.5q130 0 254 -64z" />
    <glyph glyph-name="summation" unicode="&#x2211;" horiz-adv-x="1460" 
d="M180 -197l553 746l-547 731q-55 74 -55 125q0 113 135 113h895q49 0 80 -34t31 -89v-287q0 -127 -109 -127q-106 0 -106 125v190h-606l464 -624q3 -4 9 -10q51 -69 51 -117q0 -54 -51 -123l-475 -639h624v254q0 125 109 125q108 0 108 -125v-348q0 -56 -31.5 -90.5
t-80.5 -34.5h-920q-135 0 -135 117q0 48 47 110q5 5 10 12z" />
    <glyph glyph-name="product" unicode="&#x220f;" horiz-adv-x="1686" 
d="M1051 -215v1511h-408v-1511h29q37 0 62.5 -32.5t25.5 -80.5t-31 -78t-78 -30h-299q-110 0 -110 114q0 107 86 107h55v1511h-12q-129 0 -129 111q0 60 34.5 85.5t122.5 25.5h889q89 0 123.5 -24.5t34.5 -86.5q0 -111 -131 -111h-6v-1511h51q86 0 86 -113q0 -108 -111 -108
h-295q-108 0 -108 112q0 43 26.5 76t61.5 33h31z" />
    <glyph glyph-name="pi" unicode="&#x3c0;" horiz-adv-x="1124" 
d="M94 178l142 545h-56q-96 0 -96 88q0 68 44 90.5t165 22.5h751q121 0 121 -90q0 -111 -143 -111h-49l-115 -518h35q102 0 102 -96q0 -109 -145 -109h-119q-129 0 -129 90q0 47 16 109q2 5 5 16l116 506h-272l-156 -619q-33 -129 -127 -129q-106 0 -106 111q0 33 16 94z
" />
    <glyph glyph-name="integral" unicode="&#x222b;" horiz-adv-x="561" 
d="M623 1618q301 0 301 -121q0 -46 -30.5 -75t-76.5 -29q-5 0 -14 1t-15 1l-32 6l-42 7q-75 13 -118 13q-194 0 -209 -587l-6 -238q-1 -33 -2 -92q-13 -400 -29 -518q-45 -342 -405 -342q-305 0 -305 120q0 105 104 105q6 0 102 -15.5t127 -15.5q184 0 201 633l4 147l3 100
v34q0 48 1 84l6 189q7 171 17 237q43 271 252 335q69 21 166 21z" />
    <glyph glyph-name="Omega" horiz-adv-x="1573" 
d="M446 211v-29h84v103q-272 191 -272 440q0 210 149 352t375 142q243 0 393 -149q140 -139 140 -339q0 -259 -275 -444v-105h84v33q0 86 88 86q97 0 97 -119v-47q0 -135 -131 -135h-185q-102 0 -132 28t-30 124v127q0 91 31 133q15 21 62 63q129 117 129 238q0 128 -73 201
t-198 73q-118 0 -190 -72t-72 -192q0 -125 129 -246l27 -24q65 -62 65 -138v-163q0 -95 -28.5 -123.5t-132.5 -28.5h-185q-131 0 -131 135v35q0 131 94 131q88 0 88 -90z" />
    <glyph glyph-name="radical" unicode="&#x221a;" horiz-adv-x="1124" 
d="M512 274l502 1319h180q111 0 111 -102q0 -44 -31 -73t-78 -29h-41l-547 -1438q-37 -96 -98 -96q-66 0 -100 94l-291 794l-94 -30q-19 -6 -37 -6q-99 0 -99 106q0 71 80 96l185 58q19 6 36 6q67 0 95 -76z" />
    <glyph glyph-name="approxequal" unicode="&#x2248;" horiz-adv-x="1124" 
d="M352 936q46 0 224 -43t196 -43q37 0 129.5 37t95.5 37q76 0 76 -88q0 -73 -91.5 -133t-205.5 -60q-44 0 -222 43t-200 43q-37 0 -130.5 -36t-94.5 -36q-78 0 -78 88q0 68 95 129.5t206 61.5zM352 621q46 0 224 -43t196 -43q39 0 132.5 35.5t92.5 35.5q76 0 76 -86
q0 -72 -91.5 -132t-205.5 -60q-44 0 -222 43t-200 43q-38 0 -131 -37t-94 -37q-78 0 -78 88q0 70 95.5 131.5t205.5 61.5z" />
    <glyph glyph-name="Delta" unicode="&#x2206;" horiz-adv-x="1253" 
d="M1120 0h-985q-123 0 -123 111q0 108 107 108h16l314 875q33 92 120 92h123q58 0 79 -17t44 -82l305 -868h17q108 0 108 -108q0 -111 -125 -111zM623 893l-217 -674h446z" />
    <glyph glyph-name="lozenge" unicode="&#x25ca;" horiz-adv-x="1012" 
d="M506 -193l342 736l-342 727l-342 -727zM506 -428l-455 971l455 966l455 -966z" />
    <glyph glyph-name="fraction" unicode="&#x2215;" 
d="M150 424l856 434q16 8 34 8q54 0 54 -55q0 -34 -37 -53l-858 -434q-18 -9 -33 -9q-53 0 -53 56q0 34 37 53z" />
    <glyph glyph-name="fi" unicode="&#xf001;" 
d="M1055 881v-662h16q109 0 109 -108q0 -111 -125 -111h-248q-125 0 -125 111q0 108 109 108h16v486h-16q-109 0 -109 110q0 109 125 109h190q58 0 58 -43zM418 924h37q127 0 127 -109q0 -110 -127 -110h-37v-486h37q127 0 127 -108q0 -111 -127 -111h-285q-127 0 -127 111
q0 108 111 108h16v486h-16q-111 0 -111 110q0 109 111 109h16v30q0 355 393 355q189 0 189 -111q0 -94 -90 -94q-29 0 -56.5 1t-32.5 1q-83 0 -119 -42t-36 -140zM915 1376q74 0 95.5 -28.5t21.5 -133.5q0 -99 -20 -125t-97 -26q-73 0 -95.5 22.5t-22.5 90.5
q0 125 21.5 162.5t96.5 37.5z" />
    <glyph glyph-name="fl" unicode="&#xf002;" 
d="M1055 1266v-1047h16q109 0 109 -108q0 -111 -125 -111h-248q-125 0 -125 111q0 108 109 108h16v889h-111q-186 0 -235 -37q-42 -32 -43 -147h37q127 0 127 -109q0 -110 -127 -110h-37v-486h37q127 0 127 -108q0 -111 -127 -111h-285q-127 0 -127 111q0 108 111 108h16
v486h-16q-111 0 -111 110q0 109 111 109h16v32q0 353 393 353h432q60 0 60 -43z" />
    <glyph glyph-name="apple" unicode="&#xf000;" horiz-adv-x="1618" 
d="M836 1217q-1 5 -1 14q-1 6 -1 22q0 124 95.5 229.5t235.5 131.5q2 -8 2 -23v-39q0 -122 -99.5 -230t-207.5 -108h-8q-7 0 -16 3zM1505 403q-110 -242 -201 -340t-208 -98q-25 0 -131.5 33t-122.5 33q-19 0 -129 -33t-129 -33q-129 0 -258 176q-213 290 -213 596
q0 217 124.5 356.5t323.5 139.5q37 0 155 -35t124 -35q3 0 119.5 35t154.5 35q216 0 359 -164q-201 -127 -201 -328q0 -233 233 -338z" />
    <glyph glyph-name="dotlessi" unicode="&#x131;" 
d="M754 881v-662h215q127 0 127 -108q0 -111 -127 -111h-676q-127 0 -127 111q0 108 127 108h215v486h-113q-125 0 -125 110q0 109 125 109h301q58 0 58 -43z" />
    <glyph glyph-name="breve" unicode="&#x2d8;" 
d="M231 1311q0 41 29 41q20 0 56 -33q45 -42 51 -45q71 -39 247 -39q178 0 248 39q8 6 49 44q37 34 58 34q28 0 28 -41q0 -94 -110.5 -161t-272.5 -67q-158 0 -270.5 67.5t-112.5 160.5z" />
    <glyph glyph-name="dotaccent" unicode="&#x2d9;" 
d="M614 1341q56 0 96 -39t40 -94q0 -58 -39 -97.5t-97 -39.5q-56 0 -95.5 40t-39.5 97q0 52 40.5 92.5t94.5 40.5z" />
    <glyph glyph-name="ring" unicode="&#x2da;" 
d="M614 1421q-52 0 -89.5 -37.5t-37.5 -87.5q0 -53 38 -91t89 -38q52 0 89.5 37.5t37.5 91.5q0 52 -37 88.5t-90 36.5zM614 1565q113 0 192 -79t79 -192t-79 -191.5t-192 -78.5t-191.5 78.5t-78.5 191.5t79 192t191 79z" />
    <glyph glyph-name="hungarumlaut" unicode="&#x2dd;" 
d="M1067 1219l-338 -189l-57 55l282 256q25 23 37 23q17 0 35 -18l55 -66q11 -13 11 -27q0 -20 -25 -34zM733 1219l-340 -189l-55 55l280 256q25 23 39 23q20 0 35 -18l56 -66q10 -12 10 -27q0 -20 -25 -34z" />
    <glyph glyph-name="STX" 
d="M711 1432v-758h-193v758h193zM711 408v-760h-193v760h193z" />
    <glyph glyph-name="ETX" 
d="M176 219h17v301h-31q-82 0 -82 78q0 74 82 74h31v293h-17q-110 0 -110 110q0 111 127 111h247q342 0 471 -78q250 -151 250 -514q0 -235 -113.5 -389.5t-311.5 -189.5q-86 -15 -244 -15h-299q-127 0 -127 111q0 108 110 108zM451 969v-297h139q82 0 82 -78q0 -74 -82 -74
h-139v-299q5 0 23 -1t34 -1q369 0 369 377q0 375 -367 375h-36q-13 0 -23 -2z" />
    <glyph glyph-name="EOT" 
d="M723 918q-52 75 -133 149l-197 -86q-32 -14 -53 -14q-18 0 -32.5 20t-14.5 43q0 34 51 55l148 62q-30 23 -113 76q-62 40 -62 47q0 39 103 39q50 0 170 -66q16 -8 59 -33l170 76q31 14 53 14q18 0 33 -19t15 -44q0 -29 -52 -53l-106 -49q135 -109 218 -215
q39 -49 74 -110q97 -168 97 -349q0 -217 -148.5 -351.5t-388.5 -134.5q-241 0 -392.5 135.5t-151.5 350.5q0 206 145.5 339.5t376.5 133.5q58 0 131 -16zM614 186q117 0 193 77.5t76 199.5q0 120 -75.5 196t-193.5 76q-117 0 -192.5 -76t-75.5 -196q0 -119 76 -198t192 -79z
" />
    <glyph glyph-name="BEL" 
d="M481 965h-14l156 -326l149 326h-4q-92 0 -92 110q0 111 108 111h228q123 0 123 -111q0 -110 -107 -110h-16l-269 -500v-246h131q125 0 125 -108q0 -111 -127 -111h-518q-125 0 -125 111q0 108 125 108h131v217l-284 529h-17q-106 0 -106 110q0 111 123 111h262
q110 0 110 -111q0 -110 -92 -110zM956 1466l-522 -186l-35 77l478 279q7 4 16 4q30 0 45 -31l43 -90q2 -13 2 -12q0 -31 -27 -41z" />
    <glyph glyph-name="BS" 
d="M455 705h-17l180 -426l189 426h-16q-111 0 -111 110q0 109 127 109h235q71 0 99 -24.5t28 -84.5q0 -110 -110 -110h-17l-411 -883h45q127 0 127 -111q0 -110 -127 -110h-438q-127 0 -127 110q0 111 127 111h155l94 201l-303 682h-16q-111 0 -111 110q0 109 127 109h254
q127 0 127 -109q0 -110 -110 -110zM956 1196l-522 -186l-35 77l478 279q7 4 16 4q30 0 45 -31l43 -90q2 -13 2 -12q0 -31 -27 -41z" />
    <glyph glyph-name="VT" 
d="M424 94v-272h127q127 0 127 -111q0 -108 -127 -108h-424q-125 0 -125 108q0 111 125 111h59v1265h-16q-109 0 -109 111t125 111h162q60 0 60 -43v-451q103 133 286 133q199 0 332 -132t133 -329q0 -207 -131 -344t-330 -137q-168 0 -274 88zM428 475q0 -114 64 -187
t163 -73q98 0 163 74t65 186q0 114 -64 187t-164 73q-99 0 -163 -73t-64 -187z" />
    <glyph glyph-name="FF" 
d="M178 733h873q47 0 77.5 -28t30.5 -74t-31.5 -74.5t-76.5 -28.5h-873q-45 0 -76.5 28.5t-31.5 74.5q0 42 32 72t76 30z" />
    <glyph glyph-name="SO" 
d="M371 1038l245 -245l236 235q35 35 76 35q45 0 73.5 -28.5t28.5 -67.5q0 -47 -35 -82l-235 -236l244 -243q34 -34 34 -78q0 -40 -29.5 -71.5t-70.5 -31.5q-47 0 -80 33l-244 246l-235 -236q-35 -35 -82 -35q-38 0 -68 32t-30 69q0 41 37 78l233 235l-246 246
q-35 35 -35 80q0 38 32 70t71 32q43 0 80 -37z" />
    <glyph glyph-name="SI" 
d="M709 1198v-551h39q77 0 101.5 -15.5t24.5 -60.5q0 -77 -73 -77h-369q-74 0 -74 77q0 45 24 60.5t101 15.5h41v471l-49 -4h-12q-80 0 -80 76q0 73 84 78l176 10q66 4 66 -80z" />
    <glyph glyph-name="NAK" 
d="M911 870v105h-465v-201h213q127 0 127 -102q0 -103 -127 -103h-213v-98h293q95 0 95 -78q0 -74 -93 -74h-295v-100h56q123 0 123 -108q0 -111 -123 -111h-299q-123 0 -123 111q0 108 106 108h17v100h-111q-92 0 -92 74q0 78 94 78h109v494h-17q-106 0 -106 110
q0 111 123 111h819q61 0 82.5 -18.5t21.5 -73.5v-224q0 -127 -108 -127q-107 0 -107 127z" />
    <glyph glyph-name="SYN" 
d="M918 1153q36 66 94 66q89 0 90 -115l2 -260q1 -70 -21 -93.5t-84 -23.5q-78 0 -104 94q-50 178 -240 178q-317 0 -317 -405q0 -197 86 -304.5t242 -107.5q68 0 190 35v158h-113q-125 0 -125 108q0 111 125 111h361q71 0 99 -24.5t28 -84.5q0 -110 -111 -110h-16v-250
q0 -48 -35 -70q-56 -35 -180 -61q-127 -25 -252 -25q-262 0 -424 173t-162 452q0 269 164 447t416 178q136 0 287 -66zM231 1581q0 41 29 41q20 0 56 -33q45 -42 51 -45q71 -39 247 -39q178 0 248 39q8 6 49 44q37 34 58 34q28 0 28 -41q0 -94 -110.5 -161t-272.5 -67
q-158 0 -270.5 67.5t-112.5 160.5z" />
    <glyph glyph-name="ETB" 
d="M571 737q-97 0 -162 -72.5t-65 -179.5t65 -178t162 -71q99 0 163.5 70.5t64.5 178.5q0 112 -64 182t-164 70zM819 831v52q0 41 58 41h163q125 0 125 -109q0 -110 -108 -110h-17v-689q0 -219 -118 -318t-383 -99q-316 0 -316 133q0 48 32 78t81 30q169 -18 221 -18
q142 0 197 54t55 194v45q-140 -80 -285 -80q-200 0 -328 125.5t-128 322.5q0 203 134 334t341 131q179 0 276 -117zM231 1311q0 41 29 41q20 0 56 -33q45 -42 51 -45q71 -39 247 -39q178 0 248 39q8 6 49 44q37 34 58 34q28 0 28 -41q0 -94 -110.5 -161t-272.5 -67
q-158 0 -270.5 67.5t-112.5 160.5z" />
    <glyph glyph-name="CAN" 
d="M911 965h-168v-746h168q127 0 127 -108q0 -111 -127 -111h-594q-127 0 -127 111q0 108 127 108h168v746h-168q-127 0 -127 110q0 109 127 109h594q71 0 99 -24.5t28 -84.5q0 -110 -127 -110zM614 1611q56 0 96 -39t40 -94q0 -58 -39 -97.5t-97 -39.5q-56 0 -95.5 40
t-39.5 97q0 52 40.5 92.5t94.5 40.5z" />
    <glyph glyph-name="EM" 
d="M1049 1112l4 -203q2 -106 -103 -106q-72 0 -106 76q-1 6 -4 11l-4 7q-71 125 -209 125q-89 0 -145 -41.5t-56 -106.5q0 -93 254 -145l68 -14q189 -39 278 -128q86 -86 86 -235q0 -371 -475 -383v-102q3 1 12 2q41 6 60 6q81 0 132.5 -48t51.5 -124q0 -180 -246 -180
q-102 0 -191 35t-89 77q0 37 45 37q-4 0 80.5 -25.5t117.5 -25.5q92 0 92 84q0 76 -100 76q-12 0 -19 -1q-11 -2 -32 -5v198q-113 6 -223 45q-33 -49 -95 -49t-86 22q-27 24 -28 87l-4 246q-1 67 23.5 92.5t86.5 25.5q66 0 109 -94l16 -35q78 -153 279 -153q194 0 194 145
q0 106 -231 162q-72 17 -109 27q-187 49 -265.5 125t-78.5 212q0 171 128.5 279.5t332.5 108.5q135 0 264 -56q27 56 92 56q56 0 72 -17q20 -20 21 -90z" />
    <glyph glyph-name="SUB" 
d="M162 80v135q0 121 98 121q57 0 96 -57q15 -22 37 -46q101 -88 262 -88q72 0 115 28t43 73q0 82 -273 118l-38 5q-344 50 -344 284q0 295 393 295q135 0 274 -43q39 49 97 49q84 0 84 -102v-123q0 -90 -84 -90q-15 0 -139 71.5t-201 71.5q-164 0 -164 -96q0 -72 180 -94
l82 -10q100 -12 192 -41q78 -26 119 -57q84 -64 84 -195q0 -148 -109 -232t-302 -84h-27v-106q3 1 12 2q41 6 60 6q81 0 132.5 -48t51.5 -124q0 -180 -246 -180q-102 0 -191 35t-89 77q0 37 45 37q-4 0 80.5 -25.5t117.5 -25.5q92 0 92 84q0 76 -100 76q-12 0 -19 -1
q-11 -2 -32 -5v205q-117 8 -201 32q-55 -39 -110 -39q-78 0 -78 107z" />
    <glyph glyph-name="ESC" 
d="M928 1153q36 66 94 66q89 0 90 -115l2 -260q1 -69 -21 -93t-83 -24q-74 0 -105 100q-29 94 -85 133t-154 39q-318 0 -318 -405q0 -194 82.5 -300t237.5 -106q66 0 230 70t161 70q40 0 66 -33t26 -82q0 -91 -157 -167.5t-347 -76.5q-262 0 -424 173t-162 452
q0 269 164 447t416 178q136 0 287 -66zM1007 1466l-522 -186l-35 77l478 279q7 4 16 4q30 0 45 -31l43 -90q2 -13 2 -12q0 -31 -27 -41z" />
    <glyph glyph-name="FS" 
d="M911 870q24 78 103 78q100 0 100 -145v-164q0 -119 -102 -119q-66 0 -115 82q-79 133 -264 133q-119 0 -192.5 -76.5t-73.5 -195.5q0 -125 76.5 -201t207.5 -76q111 0 377 131q37 0 61.5 -28t24.5 -72q0 -96 -143.5 -169t-337.5 -73q-240 0 -392.5 136.5t-152.5 349.5
q0 209 149 348t379 139q157 0 295 -78zM976 1196l-522 -186l-35 77l478 279q7 4 16 4q30 0 45 -31l43 -90q2 -13 2 -12q0 -31 -27 -41z" />
    <glyph glyph-name="GS" 
d="M928 1153q36 66 94 66q89 0 90 -115l2 -260q1 -69 -21 -93t-83 -24q-74 0 -105 100q-29 94 -85 133t-154 39q-318 0 -318 -405q0 -194 82.5 -300t237.5 -106q66 0 230 70t161 70q40 0 66 -33t26 -82q0 -91 -157 -167.5t-347 -76.5q-262 0 -424 173t-162 452
q0 269 164 447t416 178q136 0 287 -66z" />
    <glyph glyph-name="glyph256" horiz-adv-x="954" 
d="M210 1332v150h744v-150h-744z" />
    <glyph glyph-name="glyph257" horiz-adv-x="1020" 
d="M210 1332v150h810v-150h-810z" />
    <glyph glyph-name="glyph258" horiz-adv-x="920" 
d="M200 1430h720v-134h-720v134z" />
    <glyph glyph-name="glyph259" horiz-adv-x="1040" 
d="M200 1430h840v-134h-840v134z" />
    <glyph glyph-name="glyph260" horiz-adv-x="1105" 
d="M135 1430h970v-134h-970v134z" />
    <glyph glyph-name="glyph261" horiz-adv-x="965" 
d="M265 1290h700v-134h-700v134z" />
    <glyph glyph-name="glyph262" horiz-adv-x="965" 
d="M265 1290h700v-134h-700v134z" />
    <glyph glyph-name="glyph263" horiz-adv-x="965" 
d="M265 1290h700v-134h-700v134z" />
    <glyph glyph-name="glyph264" horiz-adv-x="965" 
d="M265 1290h700v-134h-700v134z" />
    <glyph glyph-name="glyph265" horiz-adv-x="965" 
d="M190 1290h775v-134h-775v134z" />
    <glyph glyph-name="glyph266" horiz-adv-x="1100" 
d="M200 1430h900v-134h-900v134z" />
    <glyph glyph-name="glyph267" horiz-adv-x="1015" 
d="M220 1430h795v-134h-795v134z" />
  </font>
</defs>
</svg>
